<svg xmlns="http://www.w3.org/2000/svg" xmlns:xlink="http://www.w3.org/1999/xlink" width="500" zoomAndPan="magnify" viewBox="0 0 375 374.999991" height="500" preserveAspectRatio="xMidYMid meet" version="1.0"><defs><g/></defs><path fill="#000000" d="M 199.246094 93.28125 L 193.339844 93.28125 C 193.339844 92.890625 193.300781 92.507812 193.222656 92.125 C 193.148438 91.742188 193.035156 91.371094 192.886719 91.011719 C 192.738281 90.652344 192.558594 90.3125 192.34375 89.988281 C 192.128906 89.664062 191.882812 89.367188 191.609375 89.089844 C 191.332031 88.816406 191.035156 88.570312 190.714844 88.355469 C 190.390625 88.136719 190.050781 87.957031 189.691406 87.808594 C 189.332031 87.65625 188.964844 87.546875 188.582031 87.46875 C 188.203125 87.394531 187.820312 87.355469 187.429688 87.355469 C 187.042969 87.355469 186.660156 87.394531 186.277344 87.46875 C 185.898438 87.546875 185.527344 87.65625 185.171875 87.808594 C 184.8125 87.957031 184.472656 88.136719 184.148438 88.355469 C 183.828125 88.570312 183.527344 88.816406 183.253906 89.089844 C 182.980469 89.367188 182.734375 89.664062 182.519531 89.988281 C 182.304688 90.3125 182.121094 90.652344 181.972656 91.011719 C 181.824219 91.371094 181.714844 91.742188 181.636719 92.125 C 181.5625 92.507812 181.523438 92.890625 181.523438 93.28125 L 163.804688 93.28125 C 163.417969 93.28125 163.03125 93.320312 162.652344 93.394531 C 162.269531 93.472656 161.902344 93.582031 161.542969 93.730469 C 161.183594 93.882812 160.84375 94.0625 160.523438 94.28125 C 160.199219 94.496094 159.902344 94.742188 159.628906 95.015625 C 159.351562 95.292969 159.109375 95.589844 158.894531 95.914062 C 158.675781 96.238281 158.496094 96.578125 158.347656 96.9375 C 158.199219 97.296875 158.085938 97.667969 158.011719 98.050781 C 157.933594 98.433594 157.898438 98.816406 157.898438 99.207031 C 157.898438 99.59375 157.933594 99.980469 158.011719 100.363281 C 158.085938 100.742188 158.199219 101.113281 158.347656 101.472656 C 158.496094 101.832031 158.675781 102.175781 158.894531 102.5 C 159.109375 102.820312 159.351562 103.121094 159.628906 103.394531 C 159.902344 103.671875 160.199219 103.917969 160.523438 104.132812 C 160.84375 104.347656 161.183594 104.53125 161.542969 104.679688 C 161.902344 104.828125 162.269531 104.941406 162.652344 105.019531 C 163.03125 105.09375 163.417969 105.132812 163.804688 105.132812 L 169.710938 105.132812 L 169.710938 116.984375 L 163.804688 116.984375 C 163.417969 116.984375 163.03125 117.019531 162.652344 117.097656 C 162.269531 117.171875 161.902344 117.285156 161.542969 117.433594 C 161.183594 117.582031 160.84375 117.765625 160.523438 117.980469 C 160.199219 118.199219 159.902344 118.441406 159.628906 118.71875 C 159.351562 118.992188 159.109375 119.292969 158.894531 119.617188 C 158.675781 119.941406 158.496094 120.28125 158.347656 120.640625 C 158.199219 121 158.085938 121.371094 158.011719 121.753906 C 157.933594 122.132812 157.898438 122.519531 157.898438 122.90625 C 157.898438 123.296875 157.933594 123.683594 158.011719 124.0625 C 158.085938 124.445312 158.199219 124.816406 158.347656 125.175781 C 158.496094 125.535156 158.675781 125.875 158.894531 126.199219 C 159.109375 126.523438 159.351562 126.824219 159.628906 127.097656 C 159.902344 127.375 160.199219 127.617188 160.523438 127.835938 C 160.84375 128.050781 161.183594 128.234375 161.542969 128.382812 C 161.902344 128.53125 162.269531 128.644531 162.652344 128.71875 C 163.03125 128.796875 163.417969 128.832031 163.804688 128.832031 L 169.710938 128.832031 L 169.710938 140.683594 L 163.804688 140.683594 C 163.417969 140.683594 163.03125 140.722656 162.652344 140.796875 C 162.269531 140.875 161.902344 140.988281 161.542969 141.136719 C 161.183594 141.285156 160.84375 141.46875 160.523438 141.683594 C 160.199219 141.898438 159.902344 142.144531 159.628906 142.421875 C 159.351562 142.695312 159.109375 142.996094 158.894531 143.316406 C 158.675781 143.640625 158.496094 143.984375 158.347656 144.34375 C 158.199219 144.703125 158.085938 145.074219 158.011719 145.453125 C 157.933594 145.835938 157.898438 146.222656 157.898438 146.609375 C 157.898438 147 157.933594 147.382812 158.011719 147.765625 C 158.085938 148.148438 158.199219 148.519531 158.347656 148.878906 C 158.496094 149.238281 158.675781 149.578125 158.894531 149.902344 C 159.109375 150.226562 159.351562 150.523438 159.628906 150.800781 C 159.902344 151.074219 160.199219 151.320312 160.523438 151.535156 C 160.84375 151.753906 161.183594 151.933594 161.542969 152.085938 C 161.902344 152.234375 162.269531 152.34375 162.652344 152.421875 C 163.03125 152.496094 163.417969 152.535156 163.804688 152.535156 L 181.523438 152.535156 C 181.523438 152.925781 181.5625 153.308594 181.636719 153.691406 C 181.714844 154.074219 181.824219 154.445312 181.972656 154.804688 C 182.121094 155.164062 182.304688 155.503906 182.519531 155.828125 C 182.734375 156.152344 182.980469 156.449219 183.253906 156.726562 C 183.527344 157 183.828125 157.246094 184.148438 157.460938 C 184.472656 157.679688 184.8125 157.859375 185.171875 158.007812 C 185.527344 158.160156 185.898438 158.269531 186.277344 158.347656 C 186.660156 158.421875 187.042969 158.460938 187.429688 158.460938 C 187.820312 158.460938 188.203125 158.421875 188.582031 158.347656 C 188.964844 158.269531 189.332031 158.160156 189.691406 158.007812 C 190.050781 157.859375 190.390625 157.679688 190.714844 157.460938 C 191.035156 157.246094 191.332031 157 191.609375 156.726562 C 191.882812 156.449219 192.128906 156.152344 192.34375 155.828125 C 192.558594 155.503906 192.738281 155.164062 192.886719 154.804688 C 193.035156 154.445312 193.148438 154.074219 193.222656 153.691406 C 193.300781 153.308594 193.339844 152.925781 193.339844 152.535156 L 199.246094 152.535156 C 200.09375 152.535156 200.941406 152.472656 201.78125 152.347656 C 202.621094 152.222656 203.449219 152.039062 204.265625 151.796875 C 205.078125 151.554688 205.871094 151.253906 206.644531 150.894531 C 207.414062 150.535156 208.15625 150.125 208.871094 149.660156 C 209.582031 149.195312 210.257812 148.683594 210.898438 148.121094 C 211.535156 147.558594 212.132812 146.953125 212.683594 146.304688 C 213.234375 145.65625 213.738281 144.96875 214.191406 144.25 C 214.648438 143.527344 215.046875 142.777344 215.394531 142 C 215.738281 141.222656 216.027344 140.421875 216.257812 139.601562 C 216.492188 138.78125 216.664062 137.949219 216.773438 137.101562 C 216.886719 136.257812 216.9375 135.410156 216.929688 134.554688 C 216.917969 133.703125 216.847656 132.855469 216.714844 132.011719 C 216.585938 131.171875 216.394531 130.34375 216.144531 129.527344 C 215.894531 128.710938 215.585938 127.917969 215.222656 127.148438 C 214.859375 126.378906 214.441406 125.636719 213.972656 124.925781 C 213.503906 124.214844 212.984375 123.542969 212.417969 122.90625 C 212.984375 122.273438 213.503906 121.601562 213.972656 120.890625 C 214.441406 120.179688 214.859375 119.4375 215.222656 118.667969 C 215.585938 117.898438 215.894531 117.105469 216.144531 116.289062 C 216.394531 115.472656 216.585938 114.644531 216.714844 113.804688 C 216.847656 112.960938 216.917969 112.113281 216.929688 111.261719 C 216.9375 110.40625 216.886719 109.558594 216.773438 108.714844 C 216.664062 107.867188 216.492188 107.035156 216.257812 106.214844 C 216.027344 105.394531 215.738281 104.59375 215.394531 103.816406 C 215.046875 103.039062 214.648438 102.289062 214.191406 101.566406 C 213.738281 100.847656 213.234375 100.160156 212.683594 99.511719 C 212.132812 98.863281 211.535156 98.257812 210.898438 97.695312 C 210.257812 97.132812 209.582031 96.621094 208.871094 96.15625 C 208.15625 95.691406 207.414062 95.28125 206.644531 94.921875 C 205.871094 94.5625 205.078125 94.261719 204.265625 94.019531 C 203.449219 93.777344 202.621094 93.59375 201.78125 93.46875 C 200.941406 93.34375 200.09375 93.28125 199.246094 93.28125 Z M 199.246094 105.132812 C 199.632812 105.132812 200.015625 105.167969 200.398438 105.246094 C 200.777344 105.320312 201.148438 105.433594 201.503906 105.582031 C 201.863281 105.730469 202.203125 105.914062 202.527344 106.128906 C 202.847656 106.347656 203.148438 106.59375 203.421875 106.867188 C 203.695312 107.140625 203.941406 107.441406 204.15625 107.765625 C 204.371094 108.089844 204.554688 108.429688 204.703125 108.789062 C 204.851562 109.148438 204.960938 109.519531 205.039062 109.902344 C 205.113281 110.28125 205.152344 110.667969 205.152344 111.058594 C 205.152344 111.445312 205.113281 111.832031 205.039062 112.214844 C 204.960938 112.59375 204.851562 112.964844 204.703125 113.324219 C 204.554688 113.683594 204.371094 114.027344 204.15625 114.347656 C 203.941406 114.671875 203.695312 114.972656 203.421875 115.246094 C 203.148438 115.523438 202.847656 115.769531 202.527344 115.984375 C 202.203125 116.199219 201.863281 116.382812 201.503906 116.53125 C 201.148438 116.679688 200.777344 116.792969 200.398438 116.867188 C 200.015625 116.945312 199.632812 116.984375 199.246094 116.984375 L 181.523438 116.984375 L 181.523438 105.132812 Z M 199.246094 140.683594 L 181.523438 140.683594 L 181.523438 128.832031 L 199.246094 128.832031 C 199.632812 128.832031 200.015625 128.871094 200.398438 128.949219 C 200.777344 129.023438 201.148438 129.136719 201.503906 129.285156 C 201.863281 129.433594 202.203125 129.617188 202.527344 129.832031 C 202.847656 130.046875 203.148438 130.292969 203.421875 130.570312 C 203.695312 130.84375 203.941406 131.144531 204.15625 131.46875 C 204.371094 131.789062 204.554688 132.132812 204.703125 132.492188 C 204.851562 132.851562 204.960938 133.222656 205.039062 133.601562 C 205.113281 133.984375 205.152344 134.371094 205.152344 134.757812 C 205.152344 135.148438 205.113281 135.535156 205.039062 135.914062 C 204.960938 136.296875 204.851562 136.667969 204.703125 137.027344 C 204.554688 137.386719 204.371094 137.726562 204.15625 138.050781 C 203.941406 138.375 203.695312 138.671875 203.421875 138.949219 C 203.148438 139.222656 202.847656 139.46875 202.527344 139.6875 C 202.203125 139.902344 201.863281 140.085938 201.503906 140.234375 C 201.148438 140.382812 200.777344 140.496094 200.398438 140.570312 C 200.015625 140.648438 199.632812 140.683594 199.246094 140.683594 Z M 199.246094 140.683594 " fill-opacity="1" fill-rule="nonzero"/><path fill="#000000" d="M 119.886719 65.402344 C 118.980469 66.472656 118.101562 67.5625 117.246094 68.675781 C 116.390625 69.789062 115.566406 70.921875 114.765625 72.074219 C 113.960938 73.222656 113.191406 74.394531 112.445312 75.582031 C 111.699219 76.769531 110.980469 77.976562 110.292969 79.199219 C 109.605469 80.421875 108.945312 81.660156 108.3125 82.914062 C 107.683594 84.167969 107.085938 85.4375 106.515625 86.71875 C 105.945312 88 105.402344 89.296875 104.894531 90.605469 C 104.386719 91.914062 103.90625 93.230469 103.460938 94.5625 C 103.015625 95.894531 102.601562 97.234375 102.214844 98.585938 C 101.832031 99.9375 101.480469 101.296875 101.164062 102.664062 C 100.84375 104.03125 100.558594 105.402344 100.300781 106.785156 C 100.046875 108.164062 99.828125 109.550781 99.636719 110.941406 C 99.449219 112.335938 99.292969 113.730469 99.171875 115.128906 C 99.046875 116.527344 98.957031 117.929688 98.902344 119.332031 C 98.84375 120.734375 98.820312 122.136719 98.832031 123.542969 C 98.839844 124.945312 98.882812 126.351562 98.960938 127.753906 C 99.035156 129.15625 99.144531 130.554688 99.289062 131.949219 C 99.429688 133.347656 99.605469 134.742188 99.8125 136.128906 C 100.019531 137.519531 100.261719 138.902344 100.535156 140.277344 C 100.808594 141.65625 101.113281 143.027344 101.453125 144.386719 C 101.789062 145.75 102.160156 147.105469 102.5625 148.449219 C 102.964844 149.796875 103.398438 151.128906 103.863281 152.453125 C 104.328125 153.777344 104.824219 155.089844 105.351562 156.394531 C 105.878906 157.695312 106.433594 158.980469 107.023438 160.253906 C 107.613281 161.53125 108.230469 162.789062 108.875 164.035156 C 109.523438 165.28125 110.199219 166.507812 110.90625 167.722656 C 111.613281 168.933594 112.34375 170.128906 113.109375 171.308594 C 113.871094 172.484375 114.660156 173.644531 115.476562 174.785156 C 116.292969 175.925781 117.136719 177.046875 118.003906 178.148438 C 118.875 179.246094 119.769531 180.324219 120.691406 181.382812 C 121.613281 182.441406 122.558594 183.476562 123.527344 184.488281 C 124.496094 185.503906 125.488281 186.492188 126.503906 187.457031 C 127.523438 188.421875 128.5625 189.363281 129.621094 190.28125 C 130.683594 191.195312 131.765625 192.085938 132.867188 192.953125 C 133.96875 193.816406 135.09375 194.65625 136.234375 195.464844 C 137.378906 196.277344 138.539062 197.0625 139.71875 197.816406 C 140.898438 198.574219 142.09375 199.300781 143.308594 200 C 144.523438 200.699219 145.753906 201.371094 146.996094 202.011719 C 148.242188 202.652344 149.503906 203.261719 150.777344 203.84375 C 152.050781 204.425781 153.339844 204.976562 154.640625 205.496094 C 155.941406 206.015625 157.253906 206.503906 158.574219 206.960938 C 159.898438 207.417969 161.234375 207.84375 162.578125 208.238281 C 163.921875 208.632812 165.273438 208.992188 166.632812 209.324219 C 167.992188 209.652344 169.363281 209.949219 170.738281 210.214844 C 172.113281 210.476562 173.492188 210.710938 174.878906 210.910156 C 176.261719 211.109375 177.652344 211.273438 179.046875 211.40625 C 180.441406 211.539062 181.835938 211.640625 183.234375 211.707031 C 184.632812 211.773438 186.03125 211.804688 187.429688 211.804688 C 188.832031 211.804688 190.230469 211.773438 191.628906 211.707031 C 193.027344 211.640625 194.421875 211.539062 195.816406 211.40625 C 197.210938 211.273438 198.597656 211.109375 199.984375 210.910156 C 201.371094 210.710938 202.75 210.476562 204.125 210.214844 C 205.5 209.949219 206.867188 209.652344 208.230469 209.324219 C 209.589844 208.992188 210.941406 208.632812 212.285156 208.238281 C 213.628906 207.84375 214.964844 207.417969 216.285156 206.960938 C 217.609375 206.503906 218.921875 206.015625 220.222656 205.496094 C 221.523438 204.976562 222.808594 204.425781 224.085938 203.84375 C 225.359375 203.261719 226.621094 202.652344 227.863281 202.011719 C 229.109375 201.371094 230.339844 200.699219 231.554688 200 C 232.769531 199.300781 233.964844 198.574219 235.144531 197.816406 C 236.324219 197.0625 237.484375 196.277344 238.628906 195.464844 C 239.769531 194.65625 240.894531 193.816406 241.996094 192.953125 C 243.097656 192.085938 244.179688 191.195312 245.242188 190.28125 C 246.300781 189.363281 247.339844 188.421875 248.355469 187.457031 C 249.375 186.492188 250.367188 185.503906 251.335938 184.488281 C 252.304688 183.476562 253.25 182.441406 254.171875 181.382812 C 255.09375 180.324219 255.988281 179.246094 256.855469 178.148438 C 257.726562 177.046875 258.570312 175.925781 259.386719 174.785156 C 260.203125 173.644531 260.992188 172.484375 261.753906 171.308594 C 262.515625 170.128906 263.25 168.933594 263.957031 167.722656 C 264.660156 166.507812 265.339844 165.28125 265.984375 164.035156 C 266.632812 162.789062 267.25 161.53125 267.839844 160.253906 C 268.425781 158.980469 268.984375 157.695312 269.511719 156.394531 C 270.039062 155.089844 270.535156 153.777344 271 152.453125 C 271.464844 151.128906 271.898438 149.796875 272.300781 148.449219 C 272.703125 147.105469 273.074219 145.75 273.410156 144.386719 C 273.75 143.027344 274.054688 141.65625 274.328125 140.277344 C 274.601562 138.902344 274.84375 137.519531 275.050781 136.128906 C 275.257812 134.742188 275.433594 133.347656 275.574219 131.949219 C 275.71875 130.554688 275.828125 129.15625 275.902344 127.753906 C 275.976562 126.351562 276.019531 124.945312 276.03125 123.542969 C 276.039062 122.136719 276.015625 120.734375 275.960938 119.332031 C 275.902344 117.929688 275.8125 116.527344 275.691406 115.128906 C 275.570312 113.730469 275.414062 112.335938 275.222656 110.941406 C 275.035156 109.550781 274.8125 108.164062 274.558594 106.785156 C 274.304688 105.402344 274.019531 104.03125 273.699219 102.664062 C 273.382812 101.296875 273.03125 99.9375 272.644531 98.585938 C 272.261719 97.234375 271.847656 95.894531 271.402344 94.5625 C 270.953125 93.230469 270.476562 91.914062 269.96875 90.605469 C 269.457031 89.296875 268.917969 88 268.347656 86.71875 C 267.777344 85.4375 267.179688 84.167969 266.546875 82.914062 C 265.917969 81.660156 265.257812 80.421875 264.570312 79.199219 C 263.882812 77.976562 263.164062 76.769531 262.417969 75.582031 C 261.671875 74.394531 260.898438 73.222656 260.097656 72.074219 C 259.296875 70.921875 258.46875 69.789062 257.617188 68.675781 C 256.761719 67.5625 255.882812 66.472656 254.976562 65.402344 C 253.9375 64.183594 252.863281 62.992188 251.761719 61.832031 C 250.65625 60.671875 249.523438 59.542969 248.359375 58.445312 C 247.195312 57.34375 246.003906 56.277344 244.78125 55.242188 C 243.558594 54.207031 242.3125 53.207031 241.035156 52.242188 C 239.761719 51.273438 238.460938 50.339844 237.136719 49.445312 C 235.808594 48.546875 234.460938 47.6875 233.089844 46.863281 C 231.71875 46.039062 230.324219 45.253906 228.910156 44.507812 C 227.496094 43.757812 226.0625 43.046875 224.609375 42.378906 C 223.160156 41.707031 221.691406 41.078125 220.203125 40.484375 C 218.71875 39.894531 217.21875 39.34375 215.703125 38.832031 C 214.183594 38.324219 212.65625 37.855469 211.117188 37.425781 C 209.574219 37 208.023438 36.613281 206.460938 36.269531 C 204.902344 35.929688 203.332031 35.628906 201.753906 35.367188 C 200.175781 35.109375 198.59375 34.894531 197.003906 34.722656 C 195.414062 34.550781 193.820312 34.417969 192.222656 34.332031 C 190.628906 34.246094 189.03125 34.203125 187.429688 34.203125 C 185.832031 34.203125 184.234375 34.246094 182.640625 34.332031 C 181.042969 34.417969 179.449219 34.550781 177.859375 34.722656 C 176.269531 34.894531 174.6875 35.109375 173.109375 35.367188 C 171.53125 35.628906 169.960938 35.929688 168.398438 36.269531 C 166.839844 36.613281 165.289062 37 163.746094 37.425781 C 162.207031 37.855469 160.675781 38.324219 159.160156 38.832031 C 157.644531 39.34375 156.144531 39.894531 154.660156 40.484375 C 153.171875 41.078125 151.703125 41.707031 150.25 42.378906 C 148.800781 43.046875 147.367188 43.757812 145.953125 44.507812 C 144.539062 45.253906 143.144531 46.039062 141.773438 46.863281 C 140.402344 47.6875 139.054688 48.546875 137.726562 49.445312 C 136.402344 50.339844 135.101562 51.273438 133.828125 52.242188 C 132.550781 53.207031 131.300781 54.207031 130.082031 55.242188 C 128.859375 56.277344 127.667969 57.34375 126.503906 58.445312 C 125.339844 59.542969 124.203125 60.671875 123.101562 61.832031 C 121.996094 62.992188 120.925781 64.183594 119.886719 65.402344 Z M 233.386719 169.097656 C 231.96875 170.519531 230.488281 171.875 228.945312 173.15625 C 227.402344 174.441406 225.804688 175.652344 224.152344 176.789062 C 222.496094 177.925781 220.792969 178.984375 219.042969 179.964844 C 217.289062 180.941406 215.496094 181.835938 213.664062 182.648438 C 211.828125 183.460938 209.960938 184.1875 208.058594 184.824219 C 206.160156 185.464844 204.230469 186.011719 202.28125 186.472656 C 200.328125 186.929688 198.359375 187.300781 196.375 187.574219 C 194.386719 187.851562 192.394531 188.035156 190.390625 188.128906 C 188.386719 188.21875 186.382812 188.21875 184.382812 188.125 C 182.378906 188.03125 180.382812 187.84375 178.398438 187.5625 C 176.414062 187.28125 174.445312 186.910156 172.492188 186.449219 C 170.542969 185.988281 168.617188 185.433594 166.714844 184.792969 C 164.816406 184.152344 162.949219 183.425781 161.117188 182.609375 C 159.285156 181.796875 157.492188 180.898438 155.742188 179.917969 C 153.992188 178.933594 152.289062 177.875 150.636719 176.734375 C 148.984375 175.597656 147.386719 174.382812 145.847656 173.097656 C 145.550781 172.835938 145.230469 172.601562 144.890625 172.398438 C 144.550781 172.195312 144.195312 172.027344 143.824219 171.890625 C 143.453125 171.753906 143.070312 171.652344 142.679688 171.585938 C 142.289062 171.523438 141.898438 171.492188 141.5 171.5 C 141.105469 171.511719 140.714844 171.554688 140.328125 171.636719 C 139.9375 171.71875 139.5625 171.832031 139.195312 171.984375 C 138.832031 172.136719 138.480469 172.320312 138.148438 172.539062 C 137.820312 172.753906 137.507812 173 137.222656 173.273438 C 136.957031 173.546875 136.664062 173.785156 136.347656 173.996094 C 136.03125 174.207031 135.695312 174.382812 135.34375 174.523438 C 134.988281 174.664062 134.625 174.765625 134.25 174.832031 C 133.875 174.898438 133.5 174.925781 133.121094 174.910156 C 132.738281 174.898438 132.363281 174.847656 131.996094 174.757812 C 131.625 174.667969 131.269531 174.539062 130.925781 174.378906 C 130.585938 174.214844 130.261719 174.015625 129.957031 173.785156 C 129.65625 173.554688 129.378906 173.296875 129.132812 173.007812 C 127.574219 171.179688 126.105469 169.28125 124.726562 167.316406 C 123.347656 165.347656 122.0625 163.320312 120.871094 161.234375 C 119.683594 159.144531 118.589844 157.007812 117.601562 154.816406 C 116.609375 152.628906 115.722656 150.398438 114.941406 148.125 C 114.160156 145.851562 113.484375 143.546875 112.917969 141.210938 C 112.347656 138.871094 111.890625 136.515625 111.546875 134.136719 C 111.199219 131.757812 110.960938 129.367188 110.839844 126.964844 C 110.714844 124.5625 110.703125 122.160156 110.804688 119.757812 C 110.902344 117.355469 111.117188 114.960938 111.441406 112.578125 C 111.765625 110.195312 112.199219 107.835938 112.742188 105.492188 C 113.285156 103.152344 113.9375 100.839844 114.699219 98.558594 C 115.457031 96.277344 116.324219 94.039062 117.292969 91.839844 C 118.261719 89.640625 119.332031 87.492188 120.5 85.390625 C 121.671875 83.292969 122.9375 81.253906 124.296875 79.273438 C 125.65625 77.292969 127.105469 75.378906 128.644531 73.535156 C 130.183594 71.691406 131.804688 69.925781 133.507812 68.234375 C 135.214844 66.542969 136.992188 64.933594 138.847656 63.410156 C 140.699219 61.886719 142.621094 60.449219 144.609375 59.105469 C 146.597656 57.761719 148.640625 56.515625 150.746094 55.363281 C 152.851562 54.210938 155.003906 53.160156 157.207031 52.210938 C 159.410156 51.261719 161.652344 50.417969 163.933594 49.679688 C 166.214844 48.941406 168.523438 48.308594 170.863281 47.789062 C 173.203125 47.265625 175.5625 46.855469 177.941406 46.554688 C 180.320312 46.253906 182.707031 46.066406 185.105469 45.992188 C 187.5 45.914062 189.894531 45.953125 192.285156 46.101562 C 194.679688 46.25 197.058594 46.511719 199.429688 46.882812 C 201.796875 47.257812 204.140625 47.742188 206.464844 48.332031 C 208.789062 48.925781 211.078125 49.628906 213.335938 50.4375 C 215.59375 51.242188 217.808594 52.15625 219.980469 53.171875 C 222.152344 54.1875 224.273438 55.304688 226.34375 56.519531 C 228.410156 57.738281 230.417969 59.046875 232.363281 60.449219 C 234.308594 61.855469 236.1875 63.347656 237.992188 64.929688 C 238.242188 65.140625 238.464844 65.378906 238.664062 65.640625 C 238.863281 65.898438 239.035156 66.179688 239.179688 66.472656 C 239.320312 66.769531 239.429688 67.078125 239.511719 67.394531 C 239.589844 67.714844 239.636719 68.039062 239.648438 68.367188 C 239.660156 68.695312 239.640625 69.019531 239.585938 69.34375 C 239.53125 69.667969 239.441406 69.984375 239.324219 70.289062 C 239.203125 70.59375 239.054688 70.882812 238.875 71.160156 C 238.695312 71.433594 238.492188 71.6875 238.257812 71.921875 L 237.640625 72.542969 C 237.363281 72.824219 237.117188 73.125 236.898438 73.453125 C 236.679688 73.777344 236.496094 74.121094 236.339844 74.484375 C 236.1875 74.84375 236.066406 75.21875 235.980469 75.601562 C 235.894531 75.984375 235.84375 76.371094 235.832031 76.765625 C 235.816406 77.160156 235.839844 77.550781 235.898438 77.9375 C 235.957031 78.328125 236.050781 78.707031 236.183594 79.078125 C 236.3125 79.449219 236.472656 79.804688 236.667969 80.144531 C 236.863281 80.484375 237.089844 80.804688 237.34375 81.105469 C 238.628906 82.648438 239.84375 84.253906 240.980469 85.910156 C 242.121094 87.570312 243.179688 89.277344 244.160156 91.035156 C 245.144531 92.789062 246.039062 94.589844 246.855469 96.429688 C 247.671875 98.269531 248.398438 100.144531 249.039062 102.050781 C 249.683594 103.960938 250.234375 105.894531 250.699219 107.855469 C 251.160156 109.8125 251.53125 111.789062 251.8125 113.785156 C 252.09375 115.777344 252.28125 117.78125 252.375 119.792969 C 252.472656 121.804688 252.472656 123.816406 252.382812 125.828125 C 252.292969 127.839844 252.109375 129.84375 251.832031 131.835938 C 251.558594 133.832031 251.191406 135.808594 250.734375 137.769531 C 250.273438 139.730469 249.726562 141.664062 249.089844 143.574219 C 248.453125 145.484375 247.726562 147.359375 246.917969 149.203125 C 246.105469 151.046875 245.214844 152.847656 244.238281 154.605469 C 243.257812 156.363281 242.203125 158.074219 241.070312 159.734375 C 239.933594 161.398438 238.726562 163 237.441406 164.550781 C 236.160156 166.097656 234.804688 167.585938 233.386719 169.007812 Z M 233.386719 169.097656 " fill-opacity="1" fill-rule="nonzero"/><g fill="#000000" fill-opacity="1"><g transform="translate(45.862454, 286.305739)"><g><path d="M 29.671875 -43.15625 L 29.671875 -31.0625 C 29.671875 -29.832031 29.273438 -28.800781 28.484375 -27.96875 C 27.703125 -27.132812 26.71875 -26.609375 25.53125 -26.390625 L 25.53125 -26.25 C 26.71875 -26.070312 27.703125 -25.554688 28.484375 -24.703125 C 29.273438 -23.847656 29.671875 -22.804688 29.671875 -21.578125 L 29.671875 -9.46875 C 29.671875 -6.40625 28.859375 -4.0625 27.234375 -2.4375 C 25.617188 -0.8125 23.253906 0 20.140625 0 L 4.34375 0 C 3.644531 0 3.296875 -0.347656 3.296875 -1.046875 L 3.296875 -51.578125 C 3.296875 -52.285156 3.644531 -52.640625 4.34375 -52.640625 L 20.140625 -52.640625 C 23.253906 -52.640625 25.617188 -51.835938 27.234375 -50.234375 C 28.859375 -48.628906 29.671875 -46.269531 29.671875 -43.15625 Z M 20.921875 -33.234375 L 20.921875 -41.328125 C 20.921875 -43.078125 20.046875 -43.953125 18.296875 -43.953125 L 12.296875 -43.953125 L 12.296875 -30.65625 L 18.296875 -30.65625 C 20.046875 -30.65625 20.921875 -31.515625 20.921875 -33.234375 Z M 20.921875 -11.3125 L 20.921875 -19.34375 C 20.921875 -21.09375 20.046875 -21.96875 18.296875 -21.96875 L 12.296875 -21.96875 L 12.296875 -8.6875 L 18.296875 -8.6875 C 20.046875 -8.6875 20.921875 -9.5625 20.921875 -11.3125 Z M 20.921875 -11.3125 "/></g></g></g><g fill="#000000" fill-opacity="1"><g transform="translate(93.56271, 286.305739)"><g><path d="M 4.34375 -52.640625 L 11.1875 -52.640625 C 11.882812 -52.640625 12.234375 -52.285156 12.234375 -51.578125 L 12.234375 -1.046875 C 12.234375 -0.347656 11.882812 0 11.1875 0 L 4.34375 0 C 3.644531 0 3.296875 -0.347656 3.296875 -1.046875 L 3.296875 -51.578125 C 3.296875 -52.285156 3.644531 -52.640625 4.34375 -52.640625 Z M 4.34375 -52.640625 "/></g></g></g><g fill="#000000" fill-opacity="1"><g transform="translate(123.829146, 286.305739)"><g><path d="M 3.03125 -52.640625 L 27.234375 -52.640625 C 27.941406 -52.640625 28.296875 -52.285156 28.296875 -51.578125 L 28.296875 -45 C 28.296875 -44.300781 27.941406 -43.953125 27.234375 -43.953125 L 19.609375 -43.953125 L 19.609375 -1.046875 C 19.609375 -0.347656 19.257812 0 18.5625 0 L 11.71875 0 C 11.007812 0 10.65625 -0.347656 10.65625 -1.046875 L 10.65625 -43.953125 L 3.03125 -43.953125 C 2.320312 -43.953125 1.96875 -44.300781 1.96875 -45 L 1.96875 -51.578125 C 1.96875 -52.285156 2.320312 -52.640625 3.03125 -52.640625 Z M 3.03125 -52.640625 "/></g></g></g><g fill="#000000" fill-opacity="1"><g transform="translate(168.832102, 286.305739)"><g><path d="M 29.671875 -43.15625 L 29.671875 -36.0625 C 29.671875 -35.351562 29.320312 -35 28.625 -35 L 22.046875 -35 C 21.335938 -35 20.984375 -35.351562 20.984375 -36.0625 L 20.984375 -41.328125 C 20.984375 -43.078125 20.109375 -43.953125 18.359375 -43.953125 L 14.9375 -43.953125 C 13.175781 -43.953125 12.296875 -43.078125 12.296875 -41.328125 L 12.296875 -11.3125 C 12.296875 -9.5625 13.175781 -8.6875 14.9375 -8.6875 L 18.359375 -8.6875 C 20.109375 -8.6875 20.984375 -9.5625 20.984375 -11.3125 L 20.984375 -16.578125 C 20.984375 -17.285156 21.335938 -17.640625 22.046875 -17.640625 L 28.625 -17.640625 C 29.320312 -17.640625 29.671875 -17.285156 29.671875 -16.578125 L 29.671875 -9.46875 C 29.671875 -6.40625 28.859375 -4.0625 27.234375 -2.4375 C 25.617188 -0.8125 23.273438 0 20.203125 0 L 12.828125 0 C 9.753906 0 7.394531 -0.8125 5.75 -2.4375 C 4.113281 -4.0625 3.296875 -6.40625 3.296875 -9.46875 L 3.296875 -43.15625 C 3.296875 -46.269531 4.113281 -48.628906 5.75 -50.234375 C 7.394531 -51.835938 9.753906 -52.640625 12.828125 -52.640625 L 20.203125 -52.640625 C 23.273438 -52.640625 25.617188 -51.835938 27.234375 -50.234375 C 28.859375 -48.628906 29.671875 -46.269531 29.671875 -43.15625 Z M 29.671875 -43.15625 "/></g></g></g><g fill="#000000" fill-opacity="1"><g transform="translate(216.532358, 286.305739)"><g><path d="M 3.296875 -9.46875 L 3.296875 -43.15625 C 3.296875 -46.269531 4.101562 -48.628906 5.71875 -50.234375 C 7.34375 -51.835938 9.691406 -52.640625 12.765625 -52.640625 L 20.140625 -52.640625 C 23.253906 -52.640625 25.609375 -51.835938 27.203125 -50.234375 C 28.804688 -48.628906 29.609375 -46.269531 29.609375 -43.15625 L 29.609375 -9.46875 C 29.609375 -6.40625 28.804688 -4.0625 27.203125 -2.4375 C 25.609375 -0.8125 23.253906 0 20.140625 0 L 12.765625 0 C 9.691406 0 7.34375 -0.8125 5.71875 -2.4375 C 4.101562 -4.0625 3.296875 -6.40625 3.296875 -9.46875 Z M 14.671875 -8.484375 L 18.484375 -8.484375 C 20.242188 -8.484375 21.125 -9.363281 21.125 -11.125 L 21.125 -41.515625 C 21.125 -43.273438 20.242188 -44.15625 18.484375 -44.15625 L 14.671875 -44.15625 C 12.921875 -44.15625 12.046875 -43.273438 12.046875 -41.515625 L 12.046875 -11.125 C 12.046875 -9.363281 12.921875 -8.484375 14.671875 -8.484375 Z M 14.671875 -8.484375 "/></g></g></g><g fill="#000000" fill-opacity="1"><g transform="translate(264.166824, 286.305739)"><g><path d="M 4.34375 -52.640625 L 11.1875 -52.640625 C 11.882812 -52.640625 12.234375 -52.285156 12.234375 -51.578125 L 12.234375 -1.046875 C 12.234375 -0.347656 11.882812 0 11.1875 0 L 4.34375 0 C 3.644531 0 3.296875 -0.347656 3.296875 -1.046875 L 3.296875 -51.578125 C 3.296875 -52.285156 3.644531 -52.640625 4.34375 -52.640625 Z M 4.34375 -52.640625 "/></g></g></g><g fill="#000000" fill-opacity="1"><g transform="translate(294.433267, 286.305739)"><g><path d="M 23.484375 -52.640625 L 30.328125 -52.640625 C 31.035156 -52.640625 31.390625 -52.285156 31.390625 -51.578125 L 31.390625 -1.046875 C 31.390625 -0.347656 31.035156 0 30.328125 0 L 23.8125 0 C 23.195312 0 22.804688 -0.285156 22.640625 -0.859375 L 12.5625 -28.953125 L 12.234375 -28.953125 L 12.234375 -1.046875 C 12.234375 -0.347656 11.882812 0 11.1875 0 L 4.34375 0 C 3.644531 0 3.296875 -0.347656 3.296875 -1.046875 L 3.296875 -51.578125 C 3.296875 -52.285156 3.644531 -52.640625 4.34375 -52.640625 L 10.859375 -52.640625 C 11.472656 -52.640625 11.867188 -52.351562 12.046875 -51.78125 L 22.046875 -23.8125 L 22.4375 -23.8125 L 22.4375 -51.578125 C 22.4375 -52.285156 22.785156 -52.640625 23.484375 -52.640625 Z M 23.484375 -52.640625 "/></g></g></g><g fill="#000000" fill-opacity="1"><g transform="translate(148.039388, 334.894879)"><g><path d="M 12.75 -18.546875 L 12.75 -13.34375 C 12.75 -12.8125 12.578125 -12.363281 12.234375 -12 C 11.898438 -11.644531 11.476562 -11.421875 10.96875 -11.328125 L 10.96875 -11.28125 C 11.476562 -11.207031 11.898438 -10.984375 12.234375 -10.609375 C 12.578125 -10.242188 12.75 -9.796875 12.75 -9.265625 L 12.75 -4.0625 C 12.75 -2.75 12.398438 -1.742188 11.703125 -1.046875 C 11.003906 -0.347656 9.988281 0 8.65625 0 L 1.859375 0 C 1.554688 0 1.40625 -0.148438 1.40625 -0.453125 L 1.40625 -22.15625 C 1.40625 -22.457031 1.554688 -22.609375 1.859375 -22.609375 L 8.65625 -22.609375 C 9.988281 -22.609375 11.003906 -22.265625 11.703125 -21.578125 C 12.398438 -20.890625 12.75 -19.878906 12.75 -18.546875 Z M 8.984375 -14.28125 L 8.984375 -17.75 C 8.984375 -18.5 8.609375 -18.875 7.859375 -18.875 L 5.28125 -18.875 L 5.28125 -13.171875 L 7.859375 -13.171875 C 8.609375 -13.171875 8.984375 -13.539062 8.984375 -14.28125 Z M 8.984375 -4.859375 L 8.984375 -8.3125 C 8.984375 -9.0625 8.609375 -9.4375 7.859375 -9.4375 L 5.28125 -9.4375 L 5.28125 -3.734375 L 7.859375 -3.734375 C 8.609375 -3.734375 8.984375 -4.109375 8.984375 -4.859375 Z M 8.984375 -4.859375 "/></g></g></g><g fill="#000000" fill-opacity="1"><g transform="translate(169.545406, 334.894879)"><g><path d="M 13.03125 -18.546875 L 13.03125 -11.640625 C 13.03125 -9.753906 12.34375 -8.515625 10.96875 -7.921875 L 12.921875 -0.515625 C 13.015625 -0.171875 12.878906 0 12.515625 0 L 9.578125 0 C 9.316406 0 9.15625 -0.128906 9.09375 -0.390625 L 7.203125 -7.578125 L 5.25 -7.578125 L 5.25 -0.453125 C 5.25 -0.148438 5.101562 0 4.8125 0 L 1.859375 0 C 1.554688 0 1.40625 -0.148438 1.40625 -0.453125 L 1.40625 -22.15625 C 1.40625 -22.457031 1.554688 -22.609375 1.859375 -22.609375 L 8.953125 -22.609375 C 10.296875 -22.609375 11.3125 -22.265625 12 -21.578125 C 12.6875 -20.890625 13.03125 -19.878906 13.03125 -18.546875 Z M 5.25 -11.3125 L 8.0625 -11.3125 C 8.8125 -11.3125 9.1875 -11.6875 9.1875 -12.4375 L 9.1875 -17.75 C 9.1875 -18.5 8.8125 -18.875 8.0625 -18.875 L 5.25 -18.875 Z M 5.25 -11.3125 "/></g></g></g><g fill="#000000" fill-opacity="1"><g transform="translate(191.333979, 334.894879)"><g><path d="M 1.40625 -4.0625 L 1.40625 -18.546875 C 1.40625 -19.878906 1.753906 -20.890625 2.453125 -21.578125 C 3.148438 -22.265625 4.160156 -22.609375 5.484375 -22.609375 L 8.65625 -22.609375 C 9.988281 -22.609375 11 -22.265625 11.6875 -21.578125 C 12.375 -20.890625 12.71875 -19.878906 12.71875 -18.546875 L 12.71875 -4.0625 C 12.71875 -2.75 12.375 -1.742188 11.6875 -1.046875 C 11 -0.347656 9.988281 0 8.65625 0 L 5.484375 0 C 4.160156 0 3.148438 -0.347656 2.453125 -1.046875 C 1.753906 -1.742188 1.40625 -2.75 1.40625 -4.0625 Z M 6.296875 -3.640625 L 7.9375 -3.640625 C 8.695312 -3.640625 9.078125 -4.019531 9.078125 -4.78125 L 9.078125 -17.828125 C 9.078125 -18.585938 8.695312 -18.96875 7.9375 -18.96875 L 6.296875 -18.96875 C 5.546875 -18.96875 5.171875 -18.585938 5.171875 -17.828125 L 5.171875 -4.78125 C 5.171875 -4.019531 5.546875 -3.640625 6.296875 -3.640625 Z M 6.296875 -3.640625 "/></g></g></g><g fill="#000000" fill-opacity="1"><g transform="translate(212.811741, 334.894879)"><g><path d="M 5.484375 -22.609375 L 8.65625 -22.609375 C 9.988281 -22.609375 11 -22.265625 11.6875 -21.578125 C 12.375 -20.890625 12.71875 -19.878906 12.71875 -18.546875 L 12.71875 -15.546875 C 12.71875 -15.242188 12.566406 -15.09375 12.265625 -15.09375 L 9.328125 -15.09375 C 9.023438 -15.09375 8.875 -15.242188 8.875 -15.546875 L 8.875 -17.75 C 8.875 -18.5 8.5 -18.875 7.75 -18.875 L 6.390625 -18.875 C 5.628906 -18.875 5.25 -18.5 5.25 -17.75 L 5.25 -13.84375 L 11.984375 -11.640625 C 12.472656 -11.429688 12.71875 -11.082031 12.71875 -10.59375 L 12.71875 -4.0625 C 12.71875 -2.75 12.375 -1.742188 11.6875 -1.046875 C 11 -0.347656 9.988281 0 8.65625 0 L 5.484375 0 C 4.160156 0 3.148438 -0.347656 2.453125 -1.046875 C 1.753906 -1.742188 1.40625 -2.75 1.40625 -4.0625 L 1.40625 -7.03125 C 1.40625 -7.332031 1.554688 -7.484375 1.859375 -7.484375 L 4.8125 -7.484375 C 5.101562 -7.484375 5.25 -7.332031 5.25 -7.03125 L 5.25 -4.859375 C 5.25 -4.109375 5.628906 -3.734375 6.390625 -3.734375 L 7.75 -3.734375 C 8.5 -3.734375 8.875 -4.109375 8.875 -4.859375 L 8.875 -8.625 L 2.171875 -10.828125 C 1.660156 -10.992188 1.40625 -11.34375 1.40625 -11.875 L 1.40625 -18.546875 C 1.40625 -19.878906 1.753906 -20.890625 2.453125 -21.578125 C 3.148438 -22.265625 4.160156 -22.609375 5.484375 -22.609375 Z M 5.484375 -22.609375 "/></g></g></g></svg>