<svg xmlns="http://www.w3.org/2000/svg" xmlns:xlink="http://www.w3.org/1999/xlink" width="500" zoomAndPan="magnify" viewBox="0 0 375 374.999991" height="500" preserveAspectRatio="xMidYMid meet" version="1.0"><defs><g/></defs><path fill="#000000" d="M 198.796875 82.75 L 191.84375 82.75 C 191.84375 82.292969 191.800781 81.835938 191.710938 81.386719 C 191.621094 80.9375 191.488281 80.503906 191.316406 80.082031 C 191.140625 79.65625 190.925781 79.253906 190.671875 78.875 C 190.417969 78.492188 190.132812 78.140625 189.808594 77.816406 C 189.484375 77.496094 189.132812 77.207031 188.753906 76.949219 C 188.375 76.695312 187.976562 76.480469 187.554688 76.304688 C 187.132812 76.132812 186.695312 76 186.25 75.910156 C 185.800781 75.820312 185.347656 75.777344 184.894531 75.777344 C 184.4375 75.777344 183.984375 75.820312 183.535156 75.910156 C 183.089844 76 182.65625 76.132812 182.234375 76.304688 C 181.8125 76.480469 181.410156 76.695312 181.03125 76.949219 C 180.652344 77.207031 180.300781 77.496094 179.976562 77.816406 C 179.65625 78.140625 179.367188 78.492188 179.113281 78.875 C 178.859375 79.253906 178.644531 79.65625 178.46875 80.082031 C 178.296875 80.503906 178.164062 80.9375 178.074219 81.386719 C 177.984375 81.835938 177.941406 82.292969 177.941406 82.75 L 157.085938 82.75 C 156.628906 82.75 156.179688 82.792969 155.730469 82.882812 C 155.28125 82.972656 154.847656 83.105469 154.425781 83.28125 C 154.003906 83.453125 153.605469 83.667969 153.226562 83.925781 C 152.84375 84.179688 152.492188 84.46875 152.171875 84.792969 C 151.847656 85.117188 151.558594 85.46875 151.308594 85.847656 C 151.054688 86.230469 150.839844 86.628906 150.664062 87.054688 C 150.488281 87.476562 150.359375 87.914062 150.269531 88.363281 C 150.179688 88.8125 150.136719 89.265625 150.136719 89.722656 C 150.136719 90.179688 150.179688 90.632812 150.269531 91.082031 C 150.359375 91.53125 150.488281 91.96875 150.664062 92.390625 C 150.839844 92.8125 151.054688 93.214844 151.308594 93.597656 C 151.558594 93.976562 151.847656 94.328125 152.171875 94.652344 C 152.492188 94.976562 152.84375 95.265625 153.226562 95.519531 C 153.605469 95.773438 154.003906 95.988281 154.425781 96.164062 C 154.847656 96.339844 155.28125 96.472656 155.730469 96.5625 C 156.179688 96.652344 156.628906 96.695312 157.085938 96.695312 L 164.039062 96.695312 L 164.039062 110.644531 L 157.085938 110.644531 C 156.628906 110.644531 156.179688 110.6875 155.730469 110.777344 C 155.28125 110.867188 154.847656 111 154.425781 111.171875 C 154.003906 111.347656 153.605469 111.5625 153.226562 111.816406 C 152.84375 112.074219 152.492188 112.363281 152.171875 112.683594 C 151.847656 113.007812 151.558594 113.363281 151.308594 113.742188 C 151.054688 114.121094 150.839844 114.523438 150.664062 114.949219 C 150.488281 115.371094 150.359375 115.808594 150.269531 116.257812 C 150.179688 116.707031 150.136719 117.160156 150.136719 117.617188 C 150.136719 118.074219 150.179688 118.527344 150.269531 118.976562 C 150.359375 119.425781 150.488281 119.863281 150.664062 120.285156 C 150.839844 120.707031 151.054688 121.109375 151.308594 121.492188 C 151.558594 121.871094 151.847656 122.222656 152.171875 122.546875 C 152.492188 122.871094 152.84375 123.160156 153.226562 123.414062 C 153.605469 123.667969 154.003906 123.882812 154.425781 124.058594 C 154.847656 124.234375 155.28125 124.367188 155.730469 124.457031 C 156.179688 124.546875 156.628906 124.589844 157.085938 124.589844 L 164.039062 124.589844 L 164.039062 138.535156 L 157.085938 138.535156 C 156.628906 138.535156 156.179688 138.582031 155.730469 138.671875 C 155.28125 138.761719 154.847656 138.894531 154.425781 139.066406 C 154.003906 139.242188 153.605469 139.457031 153.226562 139.710938 C 152.84375 139.964844 152.492188 140.253906 152.171875 140.578125 C 151.847656 140.902344 151.558594 141.253906 151.308594 141.636719 C 151.054688 142.015625 150.839844 142.417969 150.664062 142.84375 C 150.488281 143.265625 150.359375 143.699219 150.269531 144.148438 C 150.179688 144.597656 150.136719 145.050781 150.136719 145.511719 C 150.136719 145.96875 150.179688 146.421875 150.269531 146.871094 C 150.359375 147.320312 150.488281 147.757812 150.664062 148.179688 C 150.839844 148.601562 151.054688 149.003906 151.308594 149.386719 C 151.558594 149.765625 151.847656 150.117188 152.171875 150.441406 C 152.492188 150.765625 152.84375 151.054688 153.226562 151.308594 C 153.605469 151.5625 154.003906 151.777344 154.425781 151.953125 C 154.847656 152.128906 155.28125 152.261719 155.730469 152.351562 C 156.179688 152.4375 156.628906 152.484375 157.085938 152.484375 L 177.941406 152.484375 C 177.941406 152.941406 177.984375 153.394531 178.074219 153.84375 C 178.164062 154.292969 178.296875 154.730469 178.46875 155.152344 C 178.644531 155.574219 178.859375 155.976562 179.113281 156.359375 C 179.367188 156.738281 179.65625 157.089844 179.976562 157.414062 C 180.300781 157.738281 180.652344 158.027344 181.03125 158.28125 C 181.410156 158.535156 181.8125 158.75 182.234375 158.925781 C 182.65625 159.101562 183.089844 159.234375 183.535156 159.324219 C 183.984375 159.414062 184.4375 159.457031 184.894531 159.457031 C 185.347656 159.457031 185.800781 159.414062 186.25 159.324219 C 186.695312 159.234375 187.132812 159.101562 187.554688 158.925781 C 187.976562 158.75 188.375 158.535156 188.753906 158.28125 C 189.132812 158.027344 189.484375 157.738281 189.808594 157.414062 C 190.132812 157.089844 190.417969 156.738281 190.671875 156.359375 C 190.925781 155.976562 191.140625 155.574219 191.316406 155.152344 C 191.488281 154.730469 191.621094 154.292969 191.710938 153.84375 C 191.800781 153.394531 191.84375 152.941406 191.84375 152.484375 L 198.796875 152.484375 C 199.796875 152.480469 200.792969 152.40625 201.78125 152.261719 C 202.769531 152.117188 203.746094 151.902344 204.703125 151.613281 C 205.664062 151.328125 206.597656 150.972656 207.503906 150.554688 C 208.414062 150.132812 209.285156 149.648438 210.125 149.101562 C 210.964844 148.554688 211.757812 147.949219 212.511719 147.289062 C 213.261719 146.625 213.960938 145.914062 214.613281 145.148438 C 215.261719 144.386719 215.855469 143.582031 216.386719 142.734375 C 216.921875 141.882812 217.394531 141 217.800781 140.085938 C 218.207031 139.167969 218.546875 138.226562 218.820312 137.261719 C 219.09375 136.296875 219.292969 135.316406 219.425781 134.320312 C 219.558594 133.328125 219.617188 132.328125 219.605469 131.324219 C 219.597656 130.320312 219.511719 129.324219 219.359375 128.332031 C 219.203125 127.339844 218.980469 126.363281 218.683594 125.40625 C 218.390625 124.445312 218.027344 123.515625 217.601562 122.605469 C 217.171875 121.699219 216.683594 120.828125 216.128906 119.992188 C 215.574219 119.15625 214.964844 118.363281 214.296875 117.617188 C 214.964844 116.867188 215.574219 116.078125 216.128906 115.242188 C 216.683594 114.40625 217.171875 113.53125 217.601562 112.625 C 218.027344 111.71875 218.390625 110.785156 218.683594 109.828125 C 218.980469 108.867188 219.203125 107.894531 219.359375 106.902344 C 219.511719 105.910156 219.597656 104.914062 219.605469 103.910156 C 219.617188 102.90625 219.558594 101.90625 219.425781 100.910156 C 219.292969 99.917969 219.09375 98.9375 218.820312 97.972656 C 218.546875 97.003906 218.207031 96.066406 217.800781 95.148438 C 217.394531 94.230469 216.921875 93.347656 216.386719 92.5 C 215.855469 91.652344 215.261719 90.847656 214.613281 90.082031 C 213.960938 89.320312 213.261719 88.609375 212.511719 87.945312 C 211.757812 87.285156 210.964844 86.679688 210.125 86.132812 C 209.285156 85.585938 208.414062 85.101562 207.503906 84.679688 C 206.597656 84.257812 205.664062 83.90625 204.703125 83.617188 C 203.746094 83.332031 202.769531 83.117188 201.78125 82.96875 C 200.792969 82.824219 199.796875 82.75 198.796875 82.75 Z M 198.796875 96.695312 C 199.253906 96.695312 199.703125 96.742188 200.152344 96.828125 C 200.601562 96.917969 201.035156 97.050781 201.457031 97.226562 C 201.878906 97.402344 202.277344 97.617188 202.660156 97.871094 C 203.039062 98.125 203.390625 98.414062 203.710938 98.738281 C 204.035156 99.0625 204.324219 99.414062 204.574219 99.796875 C 204.828125 100.175781 205.042969 100.578125 205.21875 101 C 205.394531 101.425781 205.523438 101.859375 205.613281 102.308594 C 205.703125 102.757812 205.746094 103.210938 205.746094 103.667969 C 205.746094 104.128906 205.703125 104.582031 205.613281 105.03125 C 205.523438 105.480469 205.394531 105.914062 205.21875 106.339844 C 205.042969 106.761719 204.828125 107.164062 204.574219 107.542969 C 204.324219 107.925781 204.035156 108.277344 203.710938 108.601562 C 203.390625 108.925781 203.039062 109.214844 202.660156 109.46875 C 202.277344 109.722656 201.878906 109.9375 201.457031 110.113281 C 201.035156 110.289062 200.601562 110.417969 200.152344 110.507812 C 199.703125 110.597656 199.253906 110.644531 198.796875 110.644531 L 177.941406 110.644531 L 177.941406 96.695312 Z M 198.796875 138.535156 L 177.941406 138.535156 L 177.941406 124.589844 L 198.796875 124.589844 C 199.253906 124.589844 199.703125 124.632812 200.152344 124.722656 C 200.601562 124.8125 201.035156 124.945312 201.457031 125.121094 C 201.878906 125.296875 202.277344 125.511719 202.660156 125.765625 C 203.039062 126.019531 203.390625 126.308594 203.710938 126.632812 C 204.035156 126.957031 204.324219 127.308594 204.574219 127.6875 C 204.828125 128.070312 205.042969 128.472656 205.21875 128.894531 C 205.394531 129.316406 205.523438 129.753906 205.613281 130.203125 C 205.703125 130.652344 205.746094 131.105469 205.746094 131.5625 C 205.746094 132.019531 205.703125 132.476562 205.613281 132.925781 C 205.523438 133.371094 205.394531 133.808594 205.21875 134.230469 C 205.042969 134.65625 204.828125 135.058594 204.574219 135.4375 C 204.324219 135.820312 204.035156 136.171875 203.710938 136.496094 C 203.390625 136.816406 203.039062 137.105469 202.660156 137.363281 C 202.277344 137.617188 201.878906 137.832031 201.457031 138.007812 C 201.035156 138.179688 200.601562 138.3125 200.152344 138.402344 C 199.703125 138.492188 199.253906 138.535156 198.796875 138.535156 Z M 198.796875 138.535156 " fill-opacity="1" fill-rule="nonzero"/><path fill="#000000" d="M 105.402344 49.9375 C 104.335938 51.199219 103.300781 52.484375 102.292969 53.792969 C 101.289062 55.101562 100.316406 56.433594 99.371094 57.789062 C 98.429688 59.144531 97.519531 60.523438 96.640625 61.921875 C 95.765625 63.320312 94.921875 64.738281 94.109375 66.175781 C 93.300781 67.617188 92.523438 69.074219 91.78125 70.546875 C 91.039062 72.023438 90.335938 73.515625 89.664062 75.027344 C 88.992188 76.535156 88.355469 78.058594 87.757812 79.597656 C 87.160156 81.140625 86.597656 82.691406 86.070312 84.257812 C 85.542969 85.824219 85.054688 87.402344 84.605469 88.992188 C 84.152344 90.582031 83.742188 92.179688 83.367188 93.789062 C 82.988281 95.398438 82.652344 97.015625 82.351562 98.640625 C 82.054688 100.265625 81.792969 101.898438 81.570312 103.535156 C 81.347656 105.171875 81.164062 106.816406 81.019531 108.460938 C 80.875 110.105469 80.769531 111.757812 80.703125 113.40625 C 80.636719 115.058594 80.609375 116.710938 80.621094 118.363281 C 80.632812 120.015625 80.683594 121.667969 80.773438 123.316406 C 80.863281 124.96875 80.992188 126.613281 81.160156 128.257812 C 81.324219 129.902344 81.53125 131.542969 81.777344 133.175781 C 82.023438 134.8125 82.304688 136.4375 82.625 138.058594 C 82.949219 139.679688 83.308594 141.292969 83.707031 142.894531 C 84.101562 144.5 84.539062 146.09375 85.011719 147.675781 C 85.484375 149.257812 85.996094 150.832031 86.542969 152.390625 C 87.089844 153.949219 87.675781 155.492188 88.292969 157.023438 C 88.914062 158.554688 89.570312 160.070312 90.261719 161.570312 C 90.953125 163.070312 91.683594 164.550781 92.445312 166.015625 C 93.207031 167.484375 94 168.929688 94.832031 170.355469 C 95.664062 171.785156 96.527344 173.191406 97.421875 174.578125 C 98.320312 175.964844 99.25 177.328125 100.210938 178.667969 C 101.171875 180.011719 102.164062 181.332031 103.1875 182.625 C 104.210938 183.921875 105.265625 185.191406 106.347656 186.433594 C 107.429688 187.679688 108.542969 188.898438 109.683594 190.089844 C 110.824219 191.28125 111.996094 192.445312 113.191406 193.582031 C 114.386719 194.71875 115.609375 195.828125 116.859375 196.90625 C 118.105469 197.984375 119.378906 199.03125 120.675781 200.050781 C 121.976562 201.066406 123.296875 202.054688 124.640625 203.007812 C 125.984375 203.964844 127.351562 204.886719 128.742188 205.777344 C 130.128906 206.664062 131.535156 207.523438 132.964844 208.34375 C 134.394531 209.167969 135.839844 209.957031 137.308594 210.710938 C 138.773438 211.464844 140.257812 212.183594 141.757812 212.867188 C 143.257812 213.550781 144.769531 214.199219 146.300781 214.8125 C 147.832031 215.421875 149.375 215.996094 150.933594 216.535156 C 152.492188 217.074219 154.0625 217.574219 155.640625 218.039062 C 157.222656 218.5 158.816406 218.925781 160.417969 219.316406 C 162.019531 219.703125 163.628906 220.054688 165.246094 220.363281 C 166.863281 220.675781 168.488281 220.949219 170.117188 221.183594 C 171.75 221.417969 173.386719 221.613281 175.023438 221.769531 C 176.664062 221.925781 178.308594 222.042969 179.953125 222.121094 C 181.597656 222.199219 183.246094 222.238281 184.894531 222.238281 C 186.539062 222.238281 188.1875 222.199219 189.832031 222.121094 C 191.476562 222.042969 193.121094 221.925781 194.761719 221.769531 C 196.402344 221.613281 198.035156 221.417969 199.667969 221.183594 C 201.296875 220.949219 202.921875 220.675781 204.539062 220.363281 C 206.160156 220.054688 207.769531 219.703125 209.371094 219.316406 C 210.972656 218.925781 212.5625 218.5 214.144531 218.039062 C 215.726562 217.574219 217.292969 217.074219 218.851562 216.535156 C 220.410156 215.996094 221.953125 215.421875 223.484375 214.8125 C 225.015625 214.199219 226.53125 213.550781 228.03125 212.867188 C 229.53125 212.183594 231.011719 211.464844 232.476562 210.710938 C 233.945312 209.957031 235.390625 209.167969 236.820312 208.34375 C 238.25 207.523438 239.65625 206.664062 241.046875 205.777344 C 242.433594 204.886719 243.800781 203.964844 245.144531 203.007812 C 246.488281 202.054688 247.8125 201.066406 249.109375 200.050781 C 250.40625 199.03125 251.679688 197.984375 252.929688 196.90625 C 254.175781 195.828125 255.398438 194.71875 256.59375 193.582031 C 257.792969 192.445312 258.960938 191.28125 260.101562 190.089844 C 261.242188 188.898438 262.355469 187.679688 263.4375 186.433594 C 264.523438 185.191406 265.574219 183.921875 266.597656 182.625 C 267.621094 181.332031 268.613281 180.011719 269.574219 178.667969 C 270.539062 177.328125 271.464844 175.964844 272.363281 174.578125 C 273.261719 173.191406 274.125 171.785156 274.953125 170.355469 C 275.785156 168.929688 276.582031 167.484375 277.34375 166.015625 C 278.105469 164.550781 278.832031 163.070312 279.523438 161.570312 C 280.214844 160.070312 280.871094 158.554688 281.492188 157.023438 C 282.113281 155.492188 282.695312 153.949219 283.242188 152.390625 C 283.789062 150.832031 284.300781 149.257812 284.773438 147.675781 C 285.246094 146.09375 285.683594 144.5 286.082031 142.894531 C 286.476562 141.292969 286.839844 139.679688 287.160156 138.058594 C 287.480469 136.4375 287.765625 134.8125 288.007812 133.175781 C 288.253906 131.542969 288.460938 129.902344 288.628906 128.257812 C 288.792969 126.613281 288.921875 124.96875 289.011719 123.316406 C 289.101562 121.667969 289.152344 120.015625 289.164062 118.363281 C 289.175781 116.710938 289.148438 115.058594 289.082031 113.40625 C 289.015625 111.757812 288.910156 110.105469 288.765625 108.460938 C 288.621094 106.816406 288.4375 105.171875 288.214844 103.535156 C 287.992188 101.898438 287.730469 100.265625 287.433594 98.640625 C 287.132812 97.015625 286.796875 95.398438 286.421875 93.789062 C 286.046875 92.179688 285.632812 90.582031 285.179688 88.992188 C 284.730469 87.402344 284.242188 85.824219 283.714844 84.257812 C 283.191406 82.691406 282.628906 81.140625 282.027344 79.597656 C 281.429688 78.058594 280.792969 76.535156 280.125 75.027344 C 279.453125 73.515625 278.746094 72.023438 278.003906 70.546875 C 277.261719 69.074219 276.488281 67.617188 275.675781 66.175781 C 274.867188 64.738281 274.023438 63.320312 273.144531 61.921875 C 272.265625 60.523438 271.355469 59.144531 270.414062 57.789062 C 269.472656 56.433594 268.496094 55.101562 267.492188 53.792969 C 266.484375 52.484375 265.449219 51.199219 264.382812 49.9375 C 263.160156 48.503906 261.898438 47.105469 260.601562 45.738281 C 259.304688 44.375 257.96875 43.042969 256.597656 41.75 C 255.230469 40.457031 253.824219 39.199219 252.386719 37.984375 C 250.949219 36.765625 249.480469 35.585938 247.980469 34.449219 C 246.476562 33.3125 244.949219 32.214844 243.386719 31.160156 C 241.828125 30.105469 240.242188 29.089844 238.625 28.121094 C 237.011719 27.152344 235.375 26.226562 233.710938 25.347656 C 232.046875 24.464844 230.359375 23.632812 228.648438 22.84375 C 226.941406 22.054688 225.210938 21.308594 223.460938 20.613281 C 221.714844 19.917969 219.945312 19.269531 218.164062 18.671875 C 216.378906 18.070312 214.582031 17.519531 212.765625 17.015625 C 210.953125 16.511719 209.128906 16.058594 207.289062 15.65625 C 205.453125 15.25 203.605469 14.898438 201.75 14.59375 C 199.890625 14.289062 198.027344 14.035156 196.15625 13.832031 C 194.285156 13.628906 192.410156 13.476562 190.535156 13.375 C 188.65625 13.273438 186.773438 13.222656 184.894531 13.222656 C 183.011719 13.222656 181.132812 13.273438 179.253906 13.375 C 177.375 13.476562 175.5 13.628906 173.628906 13.832031 C 171.757812 14.035156 169.894531 14.289062 168.039062 14.59375 C 166.179688 14.898438 164.332031 15.25 162.496094 15.65625 C 160.65625 16.058594 158.832031 16.511719 157.019531 17.015625 C 155.207031 17.519531 153.40625 18.070312 151.621094 18.671875 C 149.839844 19.269531 148.074219 19.917969 146.324219 20.613281 C 144.574219 21.308594 142.84375 22.054688 141.136719 22.84375 C 139.425781 23.632812 137.742188 24.464844 136.078125 25.347656 C 134.414062 26.226562 132.773438 27.152344 131.160156 28.121094 C 129.546875 29.089844 127.957031 30.105469 126.398438 31.160156 C 124.839844 32.214844 123.308594 33.3125 121.808594 34.449219 C 120.304688 35.585938 118.835938 36.765625 117.398438 37.984375 C 115.960938 39.199219 114.558594 40.457031 113.1875 41.75 C 111.816406 43.042969 110.484375 44.375 109.183594 45.738281 C 107.886719 47.105469 106.625 48.503906 105.402344 49.9375 Z M 238.976562 171.976562 C 237.308594 173.648438 235.566406 175.242188 233.75 176.753906 C 231.9375 178.265625 230.054688 179.691406 228.109375 181.03125 C 226.160156 182.367188 224.15625 183.613281 222.09375 184.761719 C 220.035156 185.914062 217.925781 186.96875 215.765625 187.925781 C 213.605469 188.878906 211.40625 189.734375 209.171875 190.484375 C 206.933594 191.234375 204.664062 191.882812 202.367188 192.421875 C 200.070312 192.964844 197.753906 193.398438 195.417969 193.722656 C 193.078125 194.046875 190.730469 194.265625 188.375 194.371094 C 186.019531 194.480469 183.660156 194.480469 181.304688 194.367188 C 178.945312 194.257812 176.601562 194.035156 174.261719 193.707031 C 171.925781 193.378906 169.609375 192.941406 167.3125 192.398438 C 165.015625 191.851562 162.75 191.203125 160.515625 190.449219 C 158.277344 189.695312 156.082031 188.835938 153.921875 187.878906 C 151.765625 186.917969 149.65625 185.863281 147.597656 184.707031 C 145.539062 183.554688 143.535156 182.304688 141.589844 180.964844 C 139.644531 179.625 137.765625 178.195312 135.953125 176.683594 C 135.605469 176.375 135.230469 176.097656 134.828125 175.859375 C 134.429688 175.621094 134.007812 175.421875 133.570312 175.261719 C 133.132812 175.101562 132.6875 174.984375 132.226562 174.90625 C 131.765625 174.828125 131.304688 174.796875 130.839844 174.804688 C 130.371094 174.816406 129.914062 174.867188 129.457031 174.964844 C 129 175.058594 128.558594 175.195312 128.125 175.375 C 127.695312 175.550781 127.285156 175.769531 126.894531 176.023438 C 126.503906 176.28125 126.140625 176.566406 125.804688 176.890625 C 125.488281 177.210938 125.144531 177.492188 124.773438 177.742188 C 124.398438 177.988281 124.003906 178.195312 123.589844 178.359375 C 123.175781 178.527344 122.746094 178.648438 122.304688 178.726562 C 121.867188 178.800781 121.421875 178.832031 120.976562 178.816406 C 120.527344 178.804688 120.085938 178.742188 119.652344 178.636719 C 119.21875 178.53125 118.796875 178.382812 118.394531 178.1875 C 117.992188 177.996094 117.609375 177.765625 117.253906 177.492188 C 116.898438 177.222656 116.574219 176.917969 116.28125 176.578125 C 115.367188 175.503906 114.476562 174.40625 113.609375 173.289062 C 112.746094 172.171875 111.910156 171.035156 111.097656 169.878906 C 110.285156 168.722656 109.503906 167.546875 108.746094 166.351562 C 107.988281 165.160156 107.261719 163.949219 106.5625 162.722656 C 105.859375 161.492188 105.191406 160.25 104.546875 158.992188 C 103.90625 157.730469 103.292969 156.457031 102.710938 155.171875 C 102.128906 153.882812 101.574219 152.582031 101.054688 151.269531 C 100.53125 149.953125 100.039062 148.628906 99.582031 147.292969 C 99.121094 145.957031 98.691406 144.609375 98.292969 143.25 C 97.898438 141.894531 97.53125 140.527344 97.199219 139.15625 C 96.863281 137.78125 96.5625 136.398438 96.292969 135.011719 C 96.023438 133.625 95.789062 132.230469 95.585938 130.828125 C 95.378906 129.429688 95.210938 128.027344 95.070312 126.621094 C 94.933594 125.210938 94.824219 123.800781 94.753906 122.390625 C 94.679688 120.976562 94.640625 119.5625 94.632812 118.148438 C 94.625 116.734375 94.652344 115.320312 94.710938 113.910156 C 94.769531 112.496094 94.863281 111.085938 94.988281 109.675781 C 95.113281 108.269531 95.269531 106.863281 95.460938 105.460938 C 95.652344 104.058594 95.875 102.664062 96.128906 101.273438 C 96.386719 99.882812 96.671875 98.5 96.992188 97.121094 C 97.3125 95.742188 97.664062 94.375 98.050781 93.015625 C 98.433594 91.652344 98.847656 90.300781 99.296875 88.960938 C 99.742188 87.621094 100.222656 86.289062 100.730469 84.96875 C 101.238281 83.652344 101.777344 82.34375 102.347656 81.050781 C 102.917969 79.757812 103.519531 78.480469 104.148438 77.214844 C 104.777344 75.949219 105.4375 74.699219 106.125 73.464844 C 106.8125 72.230469 107.527344 71.011719 108.273438 69.8125 C 109.019531 68.609375 109.792969 67.425781 110.589844 66.261719 C 111.390625 65.097656 112.21875 63.953125 113.070312 62.828125 C 113.925781 61.703125 114.804688 60.597656 115.710938 59.511719 C 116.613281 58.429688 117.542969 57.367188 118.5 56.324219 C 119.453125 55.285156 120.429688 54.265625 121.433594 53.269531 C 122.433594 52.277344 123.460938 51.304688 124.507812 50.359375 C 125.554688 49.414062 126.625 48.492188 127.714844 47.59375 C 128.804688 46.699219 129.914062 45.828125 131.046875 44.984375 C 132.175781 44.136719 133.328125 43.320312 134.496094 42.53125 C 135.664062 41.738281 136.851562 40.976562 138.054688 40.242188 C 139.261719 39.507812 140.480469 38.800781 141.71875 38.125 C 142.957031 37.445312 144.210938 36.800781 145.476562 36.179688 C 146.746094 35.5625 148.027344 34.972656 149.324219 34.414062 C 150.617188 33.855469 151.925781 33.328125 153.246094 32.832031 C 154.566406 32.335938 155.894531 31.871094 157.238281 31.433594 C 158.578125 31 159.929688 30.597656 161.289062 30.226562 C 162.652344 29.855469 164.019531 29.515625 165.394531 29.210938 C 166.773438 28.902344 168.15625 28.628906 169.542969 28.386719 C 170.933594 28.144531 172.328125 27.933594 173.726562 27.757812 C 175.125 27.582031 176.527344 27.4375 177.933594 27.328125 C 179.335938 27.21875 180.746094 27.140625 182.152344 27.09375 C 183.5625 27.050781 184.972656 27.039062 186.382812 27.0625 C 187.792969 27.082031 189.199219 27.136719 190.605469 27.226562 C 192.015625 27.3125 193.417969 27.433594 194.820312 27.585938 C 196.222656 27.742188 197.617188 27.925781 199.011719 28.144531 C 200.40625 28.367188 201.792969 28.617188 203.171875 28.902344 C 204.554688 29.1875 205.925781 29.503906 207.292969 29.851562 C 208.660156 30.199219 210.015625 30.582031 211.367188 30.992188 C 212.714844 31.40625 214.050781 31.851562 215.378906 32.324219 C 216.707031 32.800781 218.023438 33.308594 219.328125 33.84375 C 220.632812 34.382812 221.921875 34.949219 223.199219 35.546875 C 224.476562 36.144531 225.742188 36.773438 226.988281 37.429688 C 228.238281 38.085938 229.46875 38.773438 230.6875 39.488281 C 231.902344 40.203125 233.101562 40.945312 234.285156 41.714844 C 235.464844 42.488281 236.628906 43.285156 237.773438 44.113281 C 238.917969 44.9375 240.042969 45.789062 241.148438 46.667969 C 242.253906 47.546875 243.335938 48.453125 244.398438 49.378906 C 244.691406 49.632812 244.953125 49.910156 245.1875 50.21875 C 245.425781 50.523438 245.625 50.851562 245.792969 51.199219 C 245.960938 51.546875 246.089844 51.910156 246.183594 52.285156 C 246.277344 52.660156 246.332031 53.039062 246.34375 53.425781 C 246.359375 53.8125 246.335938 54.195312 246.269531 54.578125 C 246.207031 54.957031 246.105469 55.328125 245.964844 55.6875 C 245.824219 56.050781 245.648438 56.390625 245.4375 56.714844 C 245.226562 57.039062 244.984375 57.335938 244.710938 57.609375 L 243.980469 58.339844 C 243.65625 58.671875 243.367188 59.027344 243.109375 59.414062 C 242.855469 59.796875 242.636719 60.203125 242.453125 60.625 C 242.269531 61.050781 242.128906 61.488281 242.027344 61.941406 C 241.929688 62.394531 241.871094 62.851562 241.855469 63.3125 C 241.839844 63.773438 241.863281 64.234375 241.933594 64.691406 C 242.003906 65.148438 242.113281 65.597656 242.265625 66.03125 C 242.417969 66.46875 242.609375 66.886719 242.839844 67.289062 C 243.070312 67.691406 243.335938 68.066406 243.632812 68.417969 C 245.148438 70.238281 246.574219 72.121094 247.914062 74.074219 C 249.257812 76.027344 250.503906 78.035156 251.65625 80.105469 C 252.8125 82.171875 253.871094 84.289062 254.828125 86.453125 C 255.789062 88.621094 256.644531 90.824219 257.398438 93.070312 C 258.15625 95.316406 258.804688 97.59375 259.351562 99.898438 C 259.894531 102.207031 260.332031 104.53125 260.660156 106.878906 C 260.992188 109.226562 261.210938 111.582031 261.324219 113.949219 C 261.4375 116.316406 261.441406 118.683594 261.332031 121.050781 C 261.226562 123.417969 261.011719 125.777344 260.6875 128.125 C 260.363281 130.472656 259.929688 132.800781 259.390625 135.105469 C 258.851562 137.414062 258.207031 139.691406 257.457031 141.9375 C 256.707031 144.1875 255.855469 146.394531 254.902344 148.5625 C 253.949219 150.730469 252.894531 152.851562 251.746094 154.921875 C 250.597656 156.992188 249.351562 159.003906 248.019531 160.957031 C 246.683594 162.914062 245.257812 164.800781 243.75 166.625 C 242.238281 168.445312 240.648438 170.195312 238.976562 171.871094 Z M 238.976562 171.976562 " fill-opacity="1" fill-rule="nonzero"/><g fill="#000000" fill-opacity="1"><g transform="translate(18.283714, 309.915523)"><g><path d="M 34.921875 -50.796875 L 34.921875 -36.546875 C 34.921875 -35.097656 34.457031 -33.882812 33.53125 -32.90625 C 32.601562 -31.925781 31.441406 -31.304688 30.046875 -31.046875 L 30.046875 -30.890625 C 31.441406 -30.691406 32.601562 -30.085938 33.53125 -29.078125 C 34.457031 -28.066406 34.921875 -26.84375 34.921875 -25.40625 L 34.921875 -11.15625 C 34.921875 -7.539062 33.960938 -4.773438 32.046875 -2.859375 C 30.140625 -0.953125 27.359375 0 23.703125 0 L 5.109375 0 C 4.285156 0 3.875 -0.410156 3.875 -1.234375 L 3.875 -60.703125 C 3.875 -61.535156 4.285156 -61.953125 5.109375 -61.953125 L 23.703125 -61.953125 C 27.359375 -61.953125 30.140625 -61.007812 32.046875 -59.125 C 33.960938 -57.238281 34.921875 -54.460938 34.921875 -50.796875 Z M 24.625 -39.109375 L 24.625 -48.625 C 24.625 -50.695312 23.59375 -51.734375 21.53125 -51.734375 L 14.484375 -51.734375 L 14.484375 -36.078125 L 21.53125 -36.078125 C 23.59375 -36.078125 24.625 -37.085938 24.625 -39.109375 Z M 24.625 -13.3125 L 24.625 -22.765625 C 24.625 -24.828125 23.59375 -25.859375 21.53125 -25.859375 L 14.484375 -25.859375 L 14.484375 -10.21875 L 21.53125 -10.21875 C 23.59375 -10.21875 24.625 -11.25 24.625 -13.3125 Z M 24.625 -13.3125 "/></g></g></g><g fill="#000000" fill-opacity="1"><g transform="translate(74.421115, 309.915523)"><g><path d="M 5.109375 -61.953125 L 13.171875 -61.953125 C 13.992188 -61.953125 14.40625 -61.535156 14.40625 -60.703125 L 14.40625 -1.234375 C 14.40625 -0.410156 13.992188 0 13.171875 0 L 5.109375 0 C 4.285156 0 3.875 -0.410156 3.875 -1.234375 L 3.875 -60.703125 C 3.875 -61.535156 4.285156 -61.953125 5.109375 -61.953125 Z M 5.109375 -61.953125 "/></g></g></g><g fill="#000000" fill-opacity="1"><g transform="translate(110.041031, 309.915523)"><g><path d="M 3.5625 -61.953125 L 32.0625 -61.953125 C 32.882812 -61.953125 33.296875 -61.535156 33.296875 -60.703125 L 33.296875 -52.96875 C 33.296875 -52.144531 32.882812 -51.734375 32.0625 -51.734375 L 23.078125 -51.734375 L 23.078125 -1.234375 C 23.078125 -0.410156 22.664062 0 21.84375 0 L 13.78125 0 C 12.957031 0 12.546875 -0.410156 12.546875 -1.234375 L 12.546875 -51.734375 L 3.5625 -51.734375 C 2.738281 -51.734375 2.328125 -52.144531 2.328125 -52.96875 L 2.328125 -60.703125 C 2.328125 -61.535156 2.738281 -61.953125 3.5625 -61.953125 Z M 3.5625 -61.953125 "/></g></g></g><g fill="#000000" fill-opacity="1"><g transform="translate(163.004038, 309.915523)"><g><path d="M 34.921875 -50.796875 L 34.921875 -42.4375 C 34.921875 -41.613281 34.507812 -41.203125 33.6875 -41.203125 L 25.9375 -41.203125 C 25.113281 -41.203125 24.703125 -41.613281 24.703125 -42.4375 L 24.703125 -48.625 C 24.703125 -50.695312 23.671875 -51.734375 21.609375 -51.734375 L 17.578125 -51.734375 C 15.515625 -51.734375 14.484375 -50.695312 14.484375 -48.625 L 14.484375 -13.3125 C 14.484375 -11.25 15.515625 -10.21875 17.578125 -10.21875 L 21.609375 -10.21875 C 23.671875 -10.21875 24.703125 -11.25 24.703125 -13.3125 L 24.703125 -19.515625 C 24.703125 -20.335938 25.113281 -20.75 25.9375 -20.75 L 33.6875 -20.75 C 34.507812 -20.75 34.921875 -20.335938 34.921875 -19.515625 L 34.921875 -11.15625 C 34.921875 -7.539062 33.960938 -4.773438 32.046875 -2.859375 C 30.140625 -0.953125 27.378906 0 23.765625 0 L 15.09375 0 C 11.476562 0 8.703125 -0.953125 6.765625 -2.859375 C 4.835938 -4.773438 3.875 -7.539062 3.875 -11.15625 L 3.875 -50.796875 C 3.875 -54.460938 4.835938 -57.238281 6.765625 -59.125 C 8.703125 -61.007812 11.476562 -61.953125 15.09375 -61.953125 L 23.765625 -61.953125 C 27.378906 -61.953125 30.140625 -61.007812 32.046875 -59.125 C 33.960938 -57.238281 34.921875 -54.460938 34.921875 -50.796875 Z M 34.921875 -50.796875 "/></g></g></g><g fill="#000000" fill-opacity="1"><g transform="translate(219.14144, 309.915523)"><g><path d="M 3.875 -11.15625 L 3.875 -50.796875 C 3.875 -54.460938 4.828125 -57.238281 6.734375 -59.125 C 8.648438 -61.007812 11.410156 -61.953125 15.015625 -61.953125 L 23.703125 -61.953125 C 27.359375 -61.953125 30.128906 -61.007812 32.015625 -59.125 C 33.898438 -57.238281 34.84375 -54.460938 34.84375 -50.796875 L 34.84375 -11.15625 C 34.84375 -7.539062 33.898438 -4.773438 32.015625 -2.859375 C 30.128906 -0.953125 27.359375 0 23.703125 0 L 15.015625 0 C 11.410156 0 8.648438 -0.953125 6.734375 -2.859375 C 4.828125 -4.773438 3.875 -7.539062 3.875 -11.15625 Z M 17.265625 -9.984375 L 21.765625 -9.984375 C 23.828125 -9.984375 24.859375 -11.019531 24.859375 -13.09375 L 24.859375 -48.859375 C 24.859375 -50.921875 23.828125 -51.953125 21.765625 -51.953125 L 17.265625 -51.953125 C 15.203125 -51.953125 14.171875 -50.921875 14.171875 -48.859375 L 14.171875 -13.09375 C 14.171875 -11.019531 15.203125 -9.984375 17.265625 -9.984375 Z M 17.265625 -9.984375 "/></g></g></g><g fill="#000000" fill-opacity="1"><g transform="translate(275.201414, 309.915523)"><g><path d="M 5.109375 -61.953125 L 13.171875 -61.953125 C 13.992188 -61.953125 14.40625 -61.535156 14.40625 -60.703125 L 14.40625 -1.234375 C 14.40625 -0.410156 13.992188 0 13.171875 0 L 5.109375 0 C 4.285156 0 3.875 -0.410156 3.875 -1.234375 L 3.875 -60.703125 C 3.875 -61.535156 4.285156 -61.953125 5.109375 -61.953125 Z M 5.109375 -61.953125 "/></g></g></g><g fill="#000000" fill-opacity="1"><g transform="translate(310.821338, 309.915523)"><g><path d="M 27.640625 -61.953125 L 35.703125 -61.953125 C 36.523438 -61.953125 36.9375 -61.535156 36.9375 -60.703125 L 36.9375 -1.234375 C 36.9375 -0.410156 36.523438 0 35.703125 0 L 28.03125 0 C 27.3125 0 26.847656 -0.332031 26.640625 -1 L 14.796875 -34.078125 L 14.40625 -34.078125 L 14.40625 -1.234375 C 14.40625 -0.410156 13.992188 0 13.171875 0 L 5.109375 0 C 4.285156 0 3.875 -0.410156 3.875 -1.234375 L 3.875 -60.703125 C 3.875 -61.535156 4.285156 -61.953125 5.109375 -61.953125 L 12.78125 -61.953125 C 13.5 -61.953125 13.960938 -61.613281 14.171875 -60.9375 L 25.9375 -28.03125 L 26.40625 -28.03125 L 26.40625 -60.703125 C 26.40625 -61.535156 26.816406 -61.953125 27.640625 -61.953125 Z M 27.640625 -61.953125 "/></g></g></g><g fill="#000000" fill-opacity="1"><g transform="translate(138.533531, 367.099036)"><g><path d="M 15 -21.828125 L 15 -15.703125 C 15 -15.078125 14.800781 -14.550781 14.40625 -14.125 C 14.007812 -13.707031 13.507812 -13.445312 12.90625 -13.34375 L 12.90625 -13.265625 C 13.507812 -13.179688 14.007812 -12.921875 14.40625 -12.484375 C 14.800781 -12.054688 15 -11.53125 15 -10.90625 L 15 -4.796875 C 15 -3.242188 14.585938 -2.054688 13.765625 -1.234375 C 12.953125 -0.410156 11.753906 0 10.171875 0 L 2.203125 0 C 1.835938 0 1.65625 -0.175781 1.65625 -0.53125 L 1.65625 -26.078125 C 1.65625 -26.429688 1.835938 -26.609375 2.203125 -26.609375 L 10.171875 -26.609375 C 11.753906 -26.609375 12.953125 -26.203125 13.765625 -25.390625 C 14.585938 -24.585938 15 -23.398438 15 -21.828125 Z M 10.578125 -16.796875 L 10.578125 -20.890625 C 10.578125 -21.773438 10.132812 -22.21875 9.25 -22.21875 L 6.21875 -22.21875 L 6.21875 -15.5 L 9.25 -15.5 C 10.132812 -15.5 10.578125 -15.929688 10.578125 -16.796875 Z M 10.578125 -5.71875 L 10.578125 -9.78125 C 10.578125 -10.664062 10.132812 -11.109375 9.25 -11.109375 L 6.21875 -11.109375 L 6.21875 -4.390625 L 9.25 -4.390625 C 10.132812 -4.390625 10.578125 -4.832031 10.578125 -5.71875 Z M 10.578125 -5.71875 "/></g></g></g><g fill="#000000" fill-opacity="1"><g transform="translate(163.843499, 367.099036)"><g><path d="M 15.328125 -21.828125 L 15.328125 -13.703125 C 15.328125 -11.484375 14.519531 -10.019531 12.90625 -9.3125 L 15.203125 -0.59375 C 15.316406 -0.195312 15.160156 0 14.734375 0 L 11.28125 0 C 10.96875 0 10.78125 -0.15625 10.71875 -0.46875 L 8.484375 -8.921875 L 6.1875 -8.921875 L 6.1875 -0.53125 C 6.1875 -0.175781 6.007812 0 5.65625 0 L 2.203125 0 C 1.835938 0 1.65625 -0.175781 1.65625 -0.53125 L 1.65625 -26.078125 C 1.65625 -26.429688 1.835938 -26.609375 2.203125 -26.609375 L 10.546875 -26.609375 C 12.117188 -26.609375 13.304688 -26.203125 14.109375 -25.390625 C 14.921875 -24.585938 15.328125 -23.398438 15.328125 -21.828125 Z M 6.1875 -13.3125 L 9.484375 -13.3125 C 10.367188 -13.3125 10.8125 -13.753906 10.8125 -14.640625 L 10.8125 -20.890625 C 10.8125 -21.773438 10.367188 -22.21875 9.484375 -22.21875 L 6.1875 -22.21875 Z M 6.1875 -13.3125 "/></g></g></g><g fill="#000000" fill-opacity="1"><g transform="translate(189.486001, 367.099036)"><g><path d="M 1.65625 -4.796875 L 1.65625 -21.828125 C 1.65625 -23.398438 2.066406 -24.585938 2.890625 -25.390625 C 3.710938 -26.203125 4.898438 -26.609375 6.453125 -26.609375 L 10.171875 -26.609375 C 11.753906 -26.609375 12.945312 -26.203125 13.75 -25.390625 C 14.5625 -24.585938 14.96875 -23.398438 14.96875 -21.828125 L 14.96875 -4.796875 C 14.96875 -3.242188 14.5625 -2.054688 13.75 -1.234375 C 12.945312 -0.410156 11.753906 0 10.171875 0 L 6.453125 0 C 4.898438 0 3.710938 -0.410156 2.890625 -1.234375 C 2.066406 -2.054688 1.65625 -3.242188 1.65625 -4.796875 Z M 7.421875 -4.296875 L 9.34375 -4.296875 C 10.226562 -4.296875 10.671875 -4.738281 10.671875 -5.625 L 10.671875 -20.984375 C 10.671875 -21.878906 10.226562 -22.328125 9.34375 -22.328125 L 7.421875 -22.328125 C 6.535156 -22.328125 6.09375 -21.878906 6.09375 -20.984375 L 6.09375 -5.625 C 6.09375 -4.738281 6.535156 -4.296875 7.421875 -4.296875 Z M 7.421875 -4.296875 "/></g></g></g><g fill="#000000" fill-opacity="1"><g transform="translate(214.762715, 367.099036)"><g><path d="M 6.453125 -26.609375 L 10.171875 -26.609375 C 11.753906 -26.609375 12.945312 -26.203125 13.75 -25.390625 C 14.5625 -24.585938 14.96875 -23.398438 14.96875 -21.828125 L 14.96875 -18.296875 C 14.96875 -17.941406 14.789062 -17.765625 14.4375 -17.765625 L 10.984375 -17.765625 C 10.628906 -17.765625 10.453125 -17.941406 10.453125 -18.296875 L 10.453125 -20.890625 C 10.453125 -21.773438 10.003906 -22.21875 9.109375 -22.21875 L 7.515625 -22.21875 C 6.628906 -22.21875 6.1875 -21.773438 6.1875 -20.890625 L 6.1875 -16.296875 L 14.109375 -13.703125 C 14.679688 -13.460938 14.96875 -13.050781 14.96875 -12.46875 L 14.96875 -4.796875 C 14.96875 -3.242188 14.5625 -2.054688 13.75 -1.234375 C 12.945312 -0.410156 11.753906 0 10.171875 0 L 6.453125 0 C 4.898438 0 3.710938 -0.410156 2.890625 -1.234375 C 2.066406 -2.054688 1.65625 -3.242188 1.65625 -4.796875 L 1.65625 -8.28125 C 1.65625 -8.632812 1.835938 -8.8125 2.203125 -8.8125 L 5.65625 -8.8125 C 6.007812 -8.8125 6.1875 -8.632812 6.1875 -8.28125 L 6.1875 -5.71875 C 6.1875 -4.832031 6.628906 -4.390625 7.515625 -4.390625 L 9.109375 -4.390625 C 10.003906 -4.390625 10.453125 -4.832031 10.453125 -5.71875 L 10.453125 -10.140625 L 2.5625 -12.734375 C 1.957031 -12.941406 1.65625 -13.351562 1.65625 -13.96875 L 1.65625 -21.828125 C 1.65625 -23.398438 2.066406 -24.585938 2.890625 -25.390625 C 3.710938 -26.203125 4.898438 -26.609375 6.453125 -26.609375 Z M 6.453125 -26.609375 "/></g></g></g></svg>