<svg xmlns="http://www.w3.org/2000/svg" xmlns:xlink="http://www.w3.org/1999/xlink" width="500" zoomAndPan="magnify" viewBox="0 0 375 374.999991" height="500" preserveAspectRatio="xMidYMid meet" version="1.0"><path fill="#000000" d="M 207.175781 137.828125 L 197.28125 137.828125 C 197.28125 137.175781 197.214844 136.53125 197.089844 135.890625 C 196.964844 135.253906 196.777344 134.632812 196.527344 134.03125 C 196.277344 133.425781 195.972656 132.855469 195.613281 132.3125 C 195.25 131.773438 194.839844 131.269531 194.382812 130.808594 C 193.921875 130.347656 193.421875 129.9375 192.882812 129.574219 C 192.34375 129.210938 191.773438 128.90625 191.171875 128.65625 C 190.570312 128.40625 189.953125 128.21875 189.316406 128.09375 C 188.679688 127.964844 188.035156 127.902344 187.386719 127.902344 C 186.734375 127.902344 186.089844 127.964844 185.453125 128.09375 C 184.816406 128.21875 184.199219 128.40625 183.597656 128.65625 C 182.996094 128.90625 182.425781 129.210938 181.886719 129.574219 C 181.347656 129.9375 180.847656 130.347656 180.386719 130.808594 C 179.929688 131.269531 179.519531 131.773438 179.15625 132.3125 C 178.796875 132.855469 178.492188 133.425781 178.242188 134.03125 C 177.996094 134.632812 177.804688 135.253906 177.679688 135.890625 C 177.554688 136.53125 177.488281 137.175781 177.488281 137.828125 L 147.804688 137.828125 C 147.15625 137.828125 146.511719 137.890625 145.875 138.019531 C 145.238281 138.144531 144.617188 138.335938 144.015625 138.585938 C 143.417969 138.832031 142.847656 139.140625 142.304688 139.5 C 141.765625 139.863281 141.265625 140.273438 140.808594 140.734375 C 140.347656 141.195312 139.9375 141.699219 139.578125 142.238281 C 139.214844 142.78125 138.910156 143.355469 138.660156 143.957031 C 138.414062 144.558594 138.226562 145.179688 138.097656 145.816406 C 137.972656 146.457031 137.910156 147.101562 137.910156 147.753906 C 137.910156 148.40625 137.972656 149.050781 138.097656 149.691406 C 138.226562 150.332031 138.414062 150.953125 138.660156 151.554688 C 138.910156 152.15625 139.214844 152.726562 139.578125 153.269531 C 139.9375 153.8125 140.347656 154.3125 140.808594 154.773438 C 141.265625 155.234375 141.765625 155.644531 142.304688 156.007812 C 142.847656 156.371094 143.417969 156.675781 144.015625 156.925781 C 144.617188 157.175781 145.238281 157.363281 145.875 157.492188 C 146.511719 157.617188 147.15625 157.679688 147.804688 157.679688 L 157.699219 157.679688 L 157.699219 177.535156 L 147.804688 177.535156 C 147.15625 177.535156 146.511719 177.597656 145.875 177.726562 C 145.238281 177.851562 144.617188 178.039062 144.015625 178.289062 C 143.417969 178.539062 142.847656 178.84375 142.304688 179.207031 C 141.765625 179.570312 141.265625 179.980469 140.808594 180.441406 C 140.347656 180.902344 139.9375 181.402344 139.578125 181.945312 C 139.214844 182.488281 138.910156 183.058594 138.660156 183.660156 C 138.414062 184.265625 138.226562 184.882812 138.097656 185.523438 C 137.972656 186.164062 137.910156 186.808594 137.910156 187.460938 C 137.910156 188.113281 137.972656 188.757812 138.097656 189.398438 C 138.226562 190.035156 138.414062 190.65625 138.660156 191.257812 C 138.910156 191.863281 139.214844 192.433594 139.578125 192.976562 C 139.9375 193.515625 140.347656 194.019531 140.808594 194.480469 C 141.265625 194.941406 141.765625 195.351562 142.304688 195.714844 C 142.847656 196.074219 143.417969 196.382812 144.015625 196.632812 C 144.617188 196.878906 145.238281 197.070312 145.875 197.195312 C 146.511719 197.324219 147.15625 197.386719 147.804688 197.386719 L 157.699219 197.386719 L 157.699219 217.238281 L 147.804688 217.238281 C 147.15625 217.238281 146.511719 217.304688 145.875 217.429688 C 145.238281 217.558594 144.617188 217.746094 144.015625 217.996094 C 143.417969 218.246094 142.847656 218.550781 142.304688 218.914062 C 141.765625 219.273438 141.265625 219.6875 140.808594 220.148438 C 140.347656 220.609375 139.9375 221.109375 139.578125 221.652344 C 139.214844 222.191406 138.910156 222.765625 138.660156 223.367188 C 138.414062 223.96875 138.226562 224.589844 138.097656 225.230469 C 137.972656 225.867188 137.910156 226.515625 137.910156 227.167969 C 137.910156 227.816406 137.972656 228.464844 138.097656 229.101562 C 138.226562 229.742188 138.414062 230.363281 138.660156 230.964844 C 138.910156 231.566406 139.214844 232.140625 139.578125 232.679688 C 139.9375 233.222656 140.347656 233.722656 140.808594 234.183594 C 141.265625 234.644531 141.765625 235.058594 142.304688 235.417969 C 142.847656 235.78125 143.417969 236.085938 144.015625 236.335938 C 144.617188 236.585938 145.238281 236.773438 145.875 236.902344 C 146.511719 237.027344 147.15625 237.09375 147.804688 237.09375 L 177.488281 237.09375 C 177.488281 237.746094 177.554688 238.390625 177.679688 239.027344 C 177.804688 239.667969 177.996094 240.289062 178.242188 240.890625 C 178.492188 241.492188 178.796875 242.066406 179.15625 242.609375 C 179.519531 243.148438 179.929688 243.652344 180.386719 244.113281 C 180.847656 244.574219 181.347656 244.984375 181.886719 245.347656 C 182.425781 245.707031 182.996094 246.015625 183.597656 246.261719 C 184.199219 246.511719 184.816406 246.703125 185.453125 246.828125 C 186.089844 246.957031 186.734375 247.019531 187.386719 247.019531 C 188.035156 247.019531 188.679688 246.957031 189.316406 246.828125 C 189.953125 246.703125 190.570312 246.511719 191.171875 246.261719 C 191.773438 246.015625 192.34375 245.707031 192.882812 245.347656 C 193.421875 244.984375 193.921875 244.574219 194.382812 244.113281 C 194.839844 243.652344 195.25 243.148438 195.613281 242.609375 C 195.972656 242.066406 196.277344 241.492188 196.527344 240.890625 C 196.777344 240.289062 196.964844 239.667969 197.089844 239.027344 C 197.214844 238.390625 197.28125 237.746094 197.28125 237.09375 L 207.175781 237.09375 C 208.597656 237.089844 210.015625 236.984375 211.425781 236.777344 C 212.832031 236.570312 214.21875 236.261719 215.585938 235.855469 C 216.949219 235.449219 218.277344 234.945312 219.570312 234.34375 C 220.863281 233.746094 222.105469 233.054688 223.300781 232.277344 C 224.492188 231.5 225.625 230.636719 226.695312 229.695312 C 227.765625 228.753906 228.765625 227.738281 229.6875 226.652344 C 230.613281 225.566406 231.457031 224.417969 232.214844 223.210938 C 232.976562 222.003906 233.648438 220.746094 234.226562 219.441406 C 234.808594 218.140625 235.289062 216.800781 235.679688 215.425781 C 236.066406 214.050781 236.355469 212.65625 236.542969 211.238281 C 236.730469 209.824219 236.816406 208.402344 236.800781 206.972656 C 236.78125 205.542969 236.664062 204.125 236.445312 202.714844 C 236.222656 201.300781 235.90625 199.914062 235.484375 198.546875 C 235.066406 197.183594 234.550781 195.855469 233.941406 194.5625 C 233.332031 193.273438 232.632812 192.03125 231.847656 190.84375 C 231.058594 189.652344 230.191406 188.523438 229.242188 187.460938 C 230.191406 186.394531 231.058594 185.269531 231.847656 184.078125 C 232.632812 182.886719 233.332031 181.648438 233.941406 180.355469 C 234.550781 179.066406 235.066406 177.738281 235.484375 176.371094 C 235.90625 175.007812 236.222656 173.621094 236.445312 172.207031 C 236.664062 170.796875 236.78125 169.375 236.800781 167.949219 C 236.816406 166.519531 236.730469 165.097656 236.542969 163.683594 C 236.355469 162.265625 236.066406 160.871094 235.679688 159.496094 C 235.289062 158.121094 234.808594 156.78125 234.226562 155.476562 C 233.648438 154.171875 232.976562 152.917969 232.214844 151.710938 C 231.457031 150.5 230.613281 149.355469 229.6875 148.269531 C 228.765625 147.183594 227.765625 146.167969 226.695312 145.226562 C 225.625 144.28125 224.492188 143.421875 223.300781 142.644531 C 222.105469 141.863281 220.863281 141.175781 219.570312 140.578125 C 218.277344 139.976562 216.949219 139.472656 215.585938 139.066406 C 214.21875 138.660156 212.832031 138.351562 211.425781 138.144531 C 210.015625 137.9375 208.597656 137.832031 207.175781 137.828125 Z M 207.175781 157.679688 C 207.824219 157.679688 208.46875 157.746094 209.105469 157.871094 C 209.742188 158 210.363281 158.1875 210.960938 158.4375 C 211.5625 158.6875 212.132812 158.992188 212.671875 159.355469 C 213.214844 159.714844 213.710938 160.128906 214.171875 160.589844 C 214.632812 161.050781 215.042969 161.550781 215.402344 162.09375 C 215.765625 162.636719 216.070312 163.207031 216.316406 163.808594 C 216.566406 164.410156 216.753906 165.03125 216.878906 165.671875 C 217.007812 166.308594 217.070312 166.957031 217.070312 167.609375 C 217.070312 168.257812 217.007812 168.90625 216.878906 169.542969 C 216.753906 170.183594 216.566406 170.804688 216.316406 171.40625 C 216.070312 172.007812 215.765625 172.582031 215.402344 173.121094 C 215.042969 173.664062 214.632812 174.164062 214.171875 174.625 C 213.710938 175.085938 213.214844 175.5 212.671875 175.859375 C 212.132812 176.222656 211.5625 176.527344 210.960938 176.777344 C 210.363281 177.027344 209.742188 177.214844 209.105469 177.34375 C 208.46875 177.46875 207.824219 177.535156 207.175781 177.535156 L 177.488281 177.535156 L 177.488281 157.679688 Z M 207.175781 217.238281 L 177.488281 217.238281 L 177.488281 197.386719 L 207.175781 197.386719 C 207.824219 197.386719 208.46875 197.449219 209.105469 197.578125 C 209.742188 197.703125 210.363281 197.894531 210.960938 198.144531 C 211.5625 198.390625 212.132812 198.699219 212.671875 199.058594 C 213.214844 199.421875 213.710938 199.832031 214.171875 200.292969 C 214.632812 200.753906 215.042969 201.257812 215.402344 201.796875 C 215.765625 202.339844 216.070312 202.914062 216.316406 203.515625 C 216.566406 204.117188 216.753906 204.738281 216.878906 205.375 C 217.007812 206.015625 217.070312 206.660156 217.070312 207.3125 C 217.070312 207.964844 217.007812 208.609375 216.878906 209.25 C 216.753906 209.890625 216.566406 210.511719 216.316406 211.113281 C 216.070312 211.714844 215.765625 212.285156 215.402344 212.828125 C 215.042969 213.371094 214.632812 213.871094 214.171875 214.332031 C 213.710938 214.792969 213.214844 215.203125 212.671875 215.566406 C 212.132812 215.929688 211.5625 216.234375 210.960938 216.484375 C 210.363281 216.734375 209.742188 216.921875 209.105469 217.050781 C 208.46875 217.175781 207.824219 217.238281 207.175781 217.238281 Z M 207.175781 217.238281 " fill-opacity="1" fill-rule="nonzero"/><path fill="#000000" d="M 74.234375 91.125 C 72.714844 92.917969 71.242188 94.746094 69.808594 96.609375 C 68.378906 98.472656 66.992188 100.371094 65.648438 102.300781 C 64.308594 104.230469 63.011719 106.1875 61.765625 108.179688 C 60.515625 110.171875 59.3125 112.191406 58.160156 114.238281 C 57.007812 116.285156 55.902344 118.359375 54.847656 120.460938 C 53.789062 122.5625 52.785156 124.6875 51.828125 126.835938 C 50.875 128.984375 49.96875 131.152344 49.117188 133.34375 C 48.265625 135.535156 47.464844 137.746094 46.714844 139.976562 C 45.96875 142.207031 45.273438 144.453125 44.628906 146.714844 C 43.988281 148.976562 43.398438 151.253906 42.867188 153.542969 C 42.332031 155.835938 41.851562 158.136719 41.425781 160.449219 C 41 162.761719 40.628906 165.085938 40.3125 167.417969 C 39.996094 169.746094 39.734375 172.085938 39.527344 174.429688 C 39.324219 176.769531 39.171875 179.117188 39.078125 181.46875 C 38.984375 183.820312 38.945312 186.171875 38.960938 188.523438 C 38.976562 190.875 39.046875 193.226562 39.175781 195.574219 C 39.304688 197.925781 39.484375 200.269531 39.722656 202.609375 C 39.960938 204.949219 40.253906 207.28125 40.605469 209.609375 C 40.953125 211.9375 41.355469 214.253906 41.8125 216.558594 C 42.269531 218.867188 42.785156 221.160156 43.351562 223.445312 C 43.917969 225.726562 44.535156 227.996094 45.210938 230.25 C 45.882812 232.503906 46.609375 234.738281 47.386719 236.957031 C 48.167969 239.175781 49 241.375 49.882812 243.554688 C 50.765625 245.734375 51.699219 247.890625 52.683594 250.027344 C 53.667969 252.160156 54.703125 254.269531 55.789062 256.355469 C 56.871094 258.441406 58.007812 260.5 59.1875 262.53125 C 60.371094 264.566406 61.597656 266.566406 62.875 268.539062 C 64.152344 270.515625 65.472656 272.457031 66.84375 274.367188 C 68.210938 276.277344 69.625 278.152344 71.082031 279.996094 C 72.539062 281.839844 74.039062 283.648438 75.578125 285.421875 C 77.121094 287.191406 78.707031 288.925781 80.328125 290.625 C 81.953125 292.320312 83.617188 293.976562 85.320312 295.59375 C 87.023438 297.210938 88.761719 298.789062 90.539062 300.324219 C 92.316406 301.859375 94.128906 303.351562 95.976562 304.800781 C 97.824219 306.25 99.707031 307.652344 101.621094 309.011719 C 103.535156 310.371094 105.480469 311.683594 107.453125 312.949219 C 109.429688 314.21875 111.433594 315.4375 113.46875 316.609375 C 115.503906 317.78125 117.5625 318.902344 119.648438 319.976562 C 121.734375 321.050781 123.847656 322.074219 125.980469 323.046875 C 128.117188 324.019531 130.273438 324.941406 132.453125 325.8125 C 134.628906 326.683594 136.828125 327.5 139.046875 328.265625 C 141.261719 329.03125 143.496094 329.746094 145.746094 330.40625 C 148 331.066406 150.265625 331.671875 152.542969 332.222656 C 154.824219 332.777344 157.113281 333.273438 159.417969 333.71875 C 161.71875 334.160156 164.03125 334.550781 166.355469 334.882812 C 168.675781 335.214844 171.003906 335.492188 173.339844 335.714844 C 175.671875 335.9375 178.011719 336.105469 180.355469 336.21875 C 182.695312 336.328125 185.039062 336.382812 187.386719 336.382812 C 189.730469 336.382812 192.074219 336.328125 194.417969 336.21875 C 196.757812 336.105469 199.097656 335.9375 201.429688 335.714844 C 203.765625 335.492188 206.09375 335.214844 208.414062 334.882812 C 210.738281 334.550781 213.050781 334.160156 215.351562 333.71875 C 217.65625 333.273438 219.945312 332.777344 222.226562 332.222656 C 224.503906 331.671875 226.769531 331.066406 229.023438 330.40625 C 231.273438 329.746094 233.507812 329.03125 235.722656 328.265625 C 237.941406 327.5 240.140625 326.683594 242.316406 325.8125 C 244.496094 324.941406 246.652344 324.019531 248.789062 323.046875 C 250.921875 322.074219 253.035156 321.050781 255.121094 319.976562 C 257.207031 318.902344 259.265625 317.78125 261.300781 316.609375 C 263.335938 315.4375 265.339844 314.21875 267.316406 312.949219 C 269.292969 311.683594 271.234375 310.371094 273.148438 309.011719 C 275.0625 307.652344 276.945312 306.25 278.792969 304.800781 C 280.640625 303.351562 282.453125 301.859375 284.230469 300.324219 C 286.007812 298.789062 287.746094 297.210938 289.449219 295.59375 C 291.152344 293.976562 292.816406 292.320312 294.441406 290.625 C 296.0625 288.925781 297.648438 287.191406 299.191406 285.421875 C 300.730469 283.648438 302.230469 281.839844 303.6875 279.996094 C 305.144531 278.152344 306.558594 276.277344 307.925781 274.367188 C 309.296875 272.457031 310.617188 270.515625 311.894531 268.539062 C 313.171875 266.566406 314.398438 264.566406 315.582031 262.53125 C 316.765625 260.5 317.898438 258.441406 318.980469 256.355469 C 320.066406 254.269531 321.101562 252.160156 322.085938 250.027344 C 323.070312 247.890625 324.003906 245.734375 324.886719 243.554688 C 325.769531 241.375 326.601562 239.175781 327.382812 236.957031 C 328.160156 234.738281 328.886719 232.503906 329.558594 230.25 C 330.234375 227.996094 330.855469 225.726562 331.421875 223.445312 C 331.988281 221.160156 332.5 218.867188 332.957031 216.558594 C 333.414062 214.253906 333.816406 211.9375 334.164062 209.609375 C 334.515625 207.28125 334.808594 204.949219 335.046875 202.609375 C 335.285156 200.269531 335.464844 197.925781 335.59375 195.574219 C 335.722656 193.226562 335.792969 190.875 335.808594 188.523438 C 335.824219 186.171875 335.785156 183.820312 335.691406 181.46875 C 335.597656 179.117188 335.445312 176.769531 335.242188 174.429688 C 335.035156 172.085938 334.773438 169.746094 334.457031 167.417969 C 334.140625 165.085938 333.769531 162.761719 333.34375 160.449219 C 332.917969 158.136719 332.4375 155.835938 331.90625 153.542969 C 331.371094 151.253906 330.78125 148.976562 330.140625 146.714844 C 329.496094 144.453125 328.800781 142.207031 328.054688 139.976562 C 327.304688 137.746094 326.503906 135.535156 325.652344 133.34375 C 324.800781 131.152344 323.894531 128.984375 322.941406 126.835938 C 321.984375 124.6875 320.980469 122.5625 319.921875 120.460938 C 318.867188 118.359375 317.761719 116.285156 316.609375 114.238281 C 315.457031 112.191406 314.253906 110.171875 313.003906 108.179688 C 311.757812 106.1875 310.460938 104.230469 309.121094 102.300781 C 307.777344 100.371094 306.390625 98.472656 304.960938 96.609375 C 303.527344 94.746094 302.054688 92.917969 300.535156 91.125 C 298.796875 89.082031 297 87.089844 295.152344 85.144531 C 293.304688 83.203125 291.40625 81.308594 289.453125 79.46875 C 287.503906 77.625 285.503906 75.839844 283.460938 74.105469 C 281.414062 72.371094 279.320312 70.695312 277.183594 69.078125 C 275.046875 67.457031 272.871094 65.894531 270.648438 64.394531 C 268.429688 62.890625 266.171875 61.449219 263.871094 60.070312 C 261.574219 58.691406 259.242188 57.375 256.871094 56.121094 C 254.503906 54.867188 252.101562 53.679688 249.667969 52.554688 C 247.238281 51.429688 244.777344 50.375 242.285156 49.382812 C 239.796875 48.390625 237.28125 47.46875 234.742188 46.617188 C 232.203125 45.761719 229.644531 44.976562 227.0625 44.261719 C 224.480469 43.542969 221.882812 42.898438 219.265625 42.324219 C 216.652344 41.75 214.019531 41.246094 211.378906 40.8125 C 208.734375 40.378906 206.082031 40.019531 203.417969 39.730469 C 200.757812 39.441406 198.085938 39.222656 195.414062 39.078125 C 192.738281 38.933594 190.0625 38.859375 187.386719 38.859375 C 184.707031 38.859375 182.03125 38.933594 179.355469 39.078125 C 176.683594 39.222656 174.011719 39.441406 171.351562 39.730469 C 168.6875 40.019531 166.035156 40.378906 163.390625 40.8125 C 160.75 41.246094 158.121094 41.75 155.503906 42.324219 C 152.886719 42.898438 150.289062 43.542969 147.707031 44.261719 C 145.125 44.976562 142.566406 45.761719 140.027344 46.617188 C 137.488281 47.46875 134.972656 48.390625 132.484375 49.382812 C 129.992188 50.375 127.53125 51.429688 125.101562 52.554688 C 122.667969 53.679688 120.265625 54.867188 117.898438 56.121094 C 115.527344 57.375 113.195312 58.691406 110.898438 60.070312 C 108.601562 61.449219 106.339844 62.890625 104.121094 64.394531 C 101.898438 65.894531 99.722656 67.457031 97.585938 69.078125 C 95.449219 70.695312 93.355469 72.371094 91.308594 74.105469 C 89.265625 75.839844 87.265625 77.625 85.316406 79.46875 C 83.367188 81.308594 81.464844 83.203125 79.617188 85.144531 C 77.769531 87.089844 75.972656 89.082031 74.234375 91.125 Z M 264.371094 264.835938 C 263.183594 266.027344 261.96875 267.191406 260.730469 268.324219 C 259.488281 269.460938 258.222656 270.566406 256.933594 271.640625 C 255.640625 272.714844 254.324219 273.761719 252.984375 274.777344 C 251.644531 275.792969 250.285156 276.773438 248.898438 277.726562 C 247.515625 278.675781 246.109375 279.597656 244.679688 280.484375 C 243.253906 281.367188 241.808594 282.222656 240.339844 283.039062 C 238.875 283.859375 237.390625 284.644531 235.886719 285.394531 C 234.382812 286.144531 232.867188 286.859375 231.328125 287.539062 C 229.792969 288.21875 228.242188 288.863281 226.679688 289.472656 C 225.113281 290.078125 223.535156 290.648438 221.941406 291.183594 C 220.351562 291.71875 218.746094 292.214844 217.132812 292.675781 C 215.519531 293.136719 213.894531 293.558594 212.261719 293.945312 C 210.625 294.328125 208.984375 294.675781 207.332031 294.984375 C 205.683594 295.292969 204.027344 295.5625 202.363281 295.792969 C 200.703125 296.027344 199.035156 296.21875 197.363281 296.371094 C 195.691406 296.527344 194.019531 296.640625 192.339844 296.71875 C 190.664062 296.796875 188.988281 296.832031 187.308594 296.832031 C 185.628906 296.832031 183.953125 296.789062 182.277344 296.710938 C 180.597656 296.632812 178.925781 296.515625 177.253906 296.359375 C 175.582031 296.199219 173.917969 296.003906 172.253906 295.769531 C 170.59375 295.539062 168.9375 295.265625 167.285156 294.953125 C 165.636719 294.644531 163.996094 294.292969 162.363281 293.90625 C 160.726562 293.519531 159.105469 293.09375 157.492188 292.632812 C 155.875 292.167969 154.273438 291.667969 152.683594 291.132812 C 151.09375 290.597656 149.515625 290.023438 147.949219 289.414062 C 146.386719 288.800781 144.835938 288.15625 143.300781 287.472656 C 141.765625 286.792969 140.25 286.074219 138.746094 285.324219 C 137.246094 284.570312 135.761719 283.785156 134.296875 282.960938 C 132.832031 282.140625 131.386719 281.285156 129.960938 280.398438 C 128.535156 279.507812 127.128906 278.589844 125.746094 277.632812 C 124.363281 276.679688 123.003906 275.695312 121.664062 274.679688 C 120.324219 273.664062 119.011719 272.613281 117.722656 271.539062 C 117.226562 271.097656 116.691406 270.707031 116.121094 270.367188 C 115.550781 270.027344 114.953125 269.746094 114.332031 269.515625 C 113.710938 269.289062 113.070312 269.117188 112.417969 269.007812 C 111.761719 268.898438 111.105469 268.851562 110.441406 268.867188 C 109.777344 268.878906 109.121094 268.953125 108.472656 269.089844 C 107.824219 269.226562 107.195312 269.421875 106.582031 269.675781 C 105.96875 269.929688 105.382812 270.238281 104.828125 270.601562 C 104.273438 270.964844 103.753906 271.375 103.277344 271.835938 C 102.828125 272.289062 102.339844 272.691406 101.808594 273.042969 C 101.277344 273.394531 100.714844 273.691406 100.125 273.925781 C 99.53125 274.164062 98.921875 274.335938 98.296875 274.445312 C 97.667969 274.554688 97.035156 274.597656 96.398438 274.578125 C 95.765625 274.558594 95.136719 274.472656 94.519531 274.320312 C 93.898438 274.167969 93.304688 273.957031 92.726562 273.683594 C 92.152344 273.40625 91.613281 273.078125 91.105469 272.691406 C 90.597656 272.304688 90.136719 271.871094 89.71875 271.386719 C 88.417969 269.859375 87.148438 268.296875 85.917969 266.707031 C 84.6875 265.117188 83.496094 263.496094 82.339844 261.851562 C 81.1875 260.207031 80.070312 258.53125 78.992188 256.832031 C 77.917969 255.136719 76.878906 253.410156 75.882812 251.664062 C 74.886719 249.917969 73.929688 248.148438 73.015625 246.355469 C 72.101562 244.5625 71.230469 242.75 70.402344 240.917969 C 69.574219 239.082031 68.785156 237.230469 68.042969 235.363281 C 67.300781 233.492188 66.601562 231.605469 65.945312 229.703125 C 65.292969 227.800781 64.683594 225.882812 64.117188 223.949219 C 63.550781 222.019531 63.03125 220.074219 62.554688 218.121094 C 62.082031 216.164062 61.652344 214.199219 61.269531 212.222656 C 60.886719 210.246094 60.550781 208.261719 60.257812 206.269531 C 59.96875 204.277344 59.722656 202.28125 59.527344 200.277344 C 59.328125 198.273438 59.179688 196.265625 59.074219 194.253906 C 58.972656 192.246094 58.914062 190.234375 58.90625 188.21875 C 58.894531 186.207031 58.933594 184.195312 59.015625 182.183594 C 59.101562 180.171875 59.230469 178.164062 59.410156 176.160156 C 59.585938 174.152344 59.8125 172.152344 60.082031 170.160156 C 60.351562 168.164062 60.671875 166.175781 61.035156 164.195312 C 61.398438 162.21875 61.808594 160.246094 62.265625 158.285156 C 62.71875 156.324219 63.21875 154.375 63.765625 152.441406 C 64.3125 150.503906 64.90625 148.578125 65.542969 146.671875 C 66.179688 144.761719 66.859375 142.867188 67.582031 140.992188 C 68.308594 139.113281 69.074219 137.253906 69.886719 135.414062 C 70.699219 133.570312 71.550781 131.75 72.449219 129.949219 C 73.34375 128.148438 74.28125 126.367188 75.261719 124.613281 C 76.242188 122.855469 77.261719 121.121094 78.320312 119.410156 C 79.382812 117.703125 80.480469 116.019531 81.621094 114.363281 C 82.757812 112.703125 83.9375 111.074219 85.152344 109.472656 C 86.367188 107.867188 87.617188 106.296875 88.90625 104.753906 C 90.191406 103.207031 91.515625 101.695312 92.875 100.214844 C 94.234375 98.734375 95.625 97.285156 97.054688 95.867188 C 98.480469 94.453125 99.9375 93.070312 101.429688 91.722656 C 102.917969 90.375 104.441406 89.0625 105.992188 87.785156 C 107.546875 86.511719 109.125 85.273438 110.734375 84.070312 C 112.347656 82.867188 113.984375 81.703125 115.648438 80.578125 C 117.3125 79.453125 119 78.367188 120.714844 77.324219 C 122.429688 76.277344 124.167969 75.273438 125.929688 74.308594 C 127.691406 73.34375 129.476562 72.421875 131.28125 71.539062 C 133.085938 70.660156 134.910156 69.824219 136.753906 69.027344 C 138.597656 68.234375 140.457031 67.480469 142.335938 66.773438 C 144.214844 66.066406 146.109375 65.402344 148.019531 64.785156 C 149.929688 64.167969 151.851562 63.59375 153.789062 63.066406 C 155.726562 62.535156 157.671875 62.054688 159.632812 61.617188 C 161.589844 61.179688 163.558594 60.789062 165.535156 60.445312 C 167.511719 60.101562 169.496094 59.804688 171.488281 59.550781 C 173.480469 59.300781 175.476562 59.097656 177.476562 58.941406 C 179.476562 58.78125 181.480469 58.671875 183.484375 58.609375 C 185.492188 58.542969 187.5 58.527344 189.503906 58.558594 C 191.511719 58.589844 193.515625 58.667969 195.519531 58.792969 C 197.523438 58.917969 199.519531 59.089844 201.515625 59.308594 C 203.511719 59.527344 205.5 59.792969 207.480469 60.105469 C 209.464844 60.414062 211.4375 60.773438 213.40625 61.179688 C 215.371094 61.582031 217.324219 62.035156 219.269531 62.53125 C 221.214844 63.027344 223.148438 63.570312 225.066406 64.15625 C 226.988281 64.742188 228.890625 65.375 230.78125 66.054688 C 232.671875 66.730469 234.542969 67.449219 236.402344 68.214844 C 238.257812 68.980469 240.09375 69.789062 241.914062 70.636719 C 243.734375 71.488281 245.53125 72.382812 247.308594 73.316406 C 249.085938 74.253906 250.839844 75.230469 252.570312 76.246094 C 254.300781 77.265625 256.007812 78.324219 257.691406 79.421875 C 259.375 80.519531 261.027344 81.65625 262.65625 82.832031 C 264.285156 84.007812 265.886719 85.21875 267.460938 86.46875 C 269.03125 87.71875 270.574219 89.007812 272.085938 90.332031 C 272.503906 90.6875 272.878906 91.085938 273.214844 91.523438 C 273.546875 91.957031 273.835938 92.425781 274.074219 92.917969 C 274.3125 93.414062 274.496094 93.929688 274.628906 94.464844 C 274.761719 94.996094 274.839844 95.539062 274.859375 96.089844 C 274.878906 96.640625 274.84375 97.1875 274.753906 97.726562 C 274.664062 98.269531 274.515625 98.796875 274.316406 99.308594 C 274.117188 99.824219 273.867188 100.308594 273.566406 100.769531 C 273.265625 101.230469 272.921875 101.65625 272.53125 102.042969 L 271.492188 103.085938 C 271.035156 103.554688 270.621094 104.0625 270.253906 104.609375 C 269.890625 105.15625 269.578125 105.734375 269.320312 106.339844 C 269.058594 106.945312 268.859375 107.566406 268.714844 108.210938 C 268.570312 108.851562 268.488281 109.503906 268.464844 110.160156 C 268.445312 110.820312 268.480469 111.472656 268.582031 112.125 C 268.679688 112.777344 268.835938 113.414062 269.054688 114.035156 C 269.269531 114.65625 269.542969 115.25 269.867188 115.824219 C 270.195312 116.394531 270.574219 116.929688 271 117.429688 C 272.078125 118.722656 273.125 120.042969 274.140625 121.382812 C 275.15625 122.726562 276.140625 124.09375 277.09375 125.480469 C 278.046875 126.867188 278.96875 128.277344 279.855469 129.710938 C 280.746094 131.140625 281.601562 132.59375 282.421875 134.0625 C 283.242188 135.535156 284.03125 137.023438 284.78125 138.53125 C 285.535156 140.039062 286.253906 141.5625 286.933594 143.101562 C 287.617188 144.644531 288.261719 146.199219 288.871094 147.769531 C 289.484375 149.339844 290.058594 150.925781 290.59375 152.523438 C 291.132812 154.121094 291.632812 155.726562 292.09375 157.347656 C 292.558594 158.96875 292.984375 160.601562 293.371094 162.242188 C 293.757812 163.882812 294.105469 165.53125 294.417969 167.1875 C 294.730469 168.84375 295.003906 170.507812 295.238281 172.175781 C 295.472656 173.84375 295.667969 175.519531 295.824219 177.195312 C 295.984375 178.875 296.101562 180.558594 296.183594 182.242188 C 296.261719 183.925781 296.300781 185.609375 296.304688 187.296875 C 296.304688 188.980469 296.269531 190.667969 296.195312 192.351562 C 296.117188 194.035156 296.003906 195.714844 295.851562 197.394531 C 295.695312 199.074219 295.503906 200.75 295.273438 202.417969 C 295.042969 204.089844 294.773438 205.75 294.464844 207.410156 C 294.160156 209.066406 293.8125 210.714844 293.429688 212.355469 C 293.046875 214 292.625 215.628906 292.164062 217.25 C 291.707031 218.875 291.210938 220.484375 290.675781 222.082031 C 290.140625 223.679688 289.574219 225.265625 288.964844 226.839844 C 288.359375 228.410156 287.714844 229.96875 287.039062 231.511719 C 286.359375 233.054688 285.644531 234.578125 284.898438 236.085938 C 284.148438 237.597656 283.363281 239.089844 282.546875 240.5625 C 281.730469 242.035156 280.878906 243.488281 279.992188 244.917969 C 279.109375 246.351562 278.191406 247.765625 277.238281 249.15625 C 276.289062 250.546875 275.308594 251.914062 274.292969 253.257812 C 273.28125 254.605469 272.238281 255.925781 271.164062 257.222656 C 270.089844 258.515625 268.984375 259.789062 267.851562 261.035156 C 266.71875 262.277344 265.558594 263.496094 264.371094 264.6875 Z M 264.371094 264.835938 " fill-opacity="1" fill-rule="nonzero"/></svg>